<svg width="18" height="18" viewBox="0 0 18 18" fill="none" xmlns="http://www.w3.org/2000/svg">
<path fill-rule="evenodd" clip-rule="evenodd" d="M9.00069 0.27356C6.68315 0.27356 6.3923 0.283693 5.48207 0.325116C4.57362 0.366716 3.95352 0.51054 3.41094 0.721564C2.84969 0.939522 2.37359 1.23108 1.89928 1.70557C1.42461 2.17989 1.13305 2.65598 0.91438 3.21706C0.702822 3.75982 0.55882 4.38009 0.517931 5.28819C0.47722 6.19842 0.466553 6.48945 0.466553 8.80698C0.466553 11.1245 0.476864 11.4145 0.518109 12.3247C0.559887 13.2332 0.703711 13.8533 0.914557 14.3958C1.13269 14.9571 1.42425 15.4332 1.89875 15.9075C2.37288 16.3822 2.84898 16.6744 3.40987 16.8924C3.95281 17.1034 4.57308 17.2472 5.48136 17.2888C6.39159 17.3303 6.68226 17.3404 8.99962 17.3404C11.3173 17.3404 11.6073 17.3303 12.5175 17.2888C13.426 17.2472 14.0468 17.1034 14.5897 16.8924C15.1508 16.6744 15.6262 16.3822 16.1003 15.9075C16.575 15.4332 16.8665 14.9571 17.0852 14.396C17.295 13.8533 17.439 13.233 17.4817 12.3249C17.5226 11.4147 17.5332 11.1245 17.5332 8.80698C17.5332 6.48945 17.5226 6.1986 17.4817 5.28837C17.439 4.37991 17.295 3.75982 17.0852 3.21723C16.8665 2.65598 16.575 2.17989 16.1003 1.70557C15.6256 1.2309 15.151 0.939344 14.5892 0.721564C14.0452 0.51054 13.4247 0.366716 12.5163 0.325116C11.606 0.283693 11.3163 0.27356 8.99802 0.27356H9.00069ZM8.23509 1.81117C8.4623 1.81082 8.71581 1.81117 9.00061 1.81117C11.279 1.81117 11.5491 1.81935 12.4488 1.86024C13.2808 1.89829 13.7324 2.03731 14.0332 2.15411C14.4314 2.30878 14.7153 2.49367 15.0138 2.79234C15.3125 3.09101 15.4974 3.37546 15.6524 3.77368C15.7692 4.07413 15.9084 4.52569 15.9463 5.3577C15.9872 6.25727 15.9961 6.52749 15.9961 8.80485C15.9961 11.0822 15.9872 11.3524 15.9463 12.252C15.9082 13.084 15.7692 13.5356 15.6524 13.836C15.4977 14.2342 15.3125 14.5178 15.0138 14.8163C14.7152 15.115 14.4316 15.2998 14.0332 15.4545C13.7328 15.5719 13.2808 15.7105 12.4488 15.7486C11.5493 15.7895 11.279 15.7983 9.00061 15.7983C6.72201 15.7983 6.45196 15.7895 5.5524 15.7486C4.72039 15.7102 4.26883 15.5711 3.96785 15.4543C3.56962 15.2997 3.28518 15.1148 2.98651 14.8161C2.68784 14.5174 2.50295 14.2337 2.34792 13.8353C2.23112 13.5349 2.09192 13.0833 2.05405 12.2513C2.01316 11.3517 2.00498 11.0815 2.00498 8.80271C2.00498 6.52393 2.01316 6.25513 2.05405 5.35557C2.0921 4.52356 2.23112 4.072 2.34792 3.7712C2.50259 3.37297 2.68784 3.08852 2.98651 2.78985C3.28518 2.49118 3.56962 2.30629 3.96785 2.15127C4.26865 2.03393 4.72039 1.89526 5.5524 1.85704C6.33961 1.82149 6.64468 1.81082 8.23509 1.80904V1.81117ZM13.5567 3.22802C12.9913 3.22802 12.5327 3.68615 12.5327 4.25167C12.5327 4.81701 12.9913 5.27568 13.5567 5.27568C14.122 5.27568 14.5807 4.81701 14.5807 4.25167C14.5807 3.68633 14.122 3.22766 13.5567 3.22766V3.22802ZM9.00086 4.42428C6.58075 4.42428 4.61859 6.38643 4.61859 8.80654C4.61859 11.2267 6.58075 13.1879 9.00086 13.1879C11.421 13.1879 13.3824 11.2267 13.3824 8.80654C13.3824 6.38643 11.4208 4.42428 9.00068 4.42428H9.00086ZM9.00001 5.96269C10.5709 5.96269 11.8445 7.23612 11.8445 8.80716C11.8445 10.378 10.5709 11.6516 9.00001 11.6516C7.42897 11.6516 6.15554 10.378 6.15554 8.80716C6.15554 7.23612 7.42897 5.96269 9.00001 5.96269Z" fill="black"/>
</svg>
