<svg width="90" height="40" viewBox="0 0 90 40" fill="none" xmlns="http://www.w3.org/2000/svg">
<path fill-rule="evenodd" clip-rule="evenodd" d="M21.3517 4.14135L21.3337 15.233C22.887 16.3583 23.8388 18.1859 23.8298 20.1576V22.0842C23.8208 24.9471 22.8062 27.675 21.0195 29.6917V33.6529C21.0195 35.0394 19.8971 36.1648 18.5144 36.1648H17.3382V39.1987V39.3158C17.3382 39.6939 17.033 40 16.6559 40H8.30573C7.92863 40 7.62335 39.6939 7.62335 39.3158V38.3975V36.1648H6.34839C4.96568 36.1648 3.84335 35.0394 3.84335 33.6529V29.8177C3.84335 29.6376 3.78948 29.5116 3.74459 29.4576C2.09252 27.4319 1.18568 24.8661 1.18568 22.2462V21.7961L0.180071 18.528C-0.161116 17.3937 -0.0174584 16.1783 0.611045 15.1519C1.14976 14.2606 2.04763 13.6304 3.04425 13.3243L3.75356 13.1083C3.87029 13.0722 3.97803 13.0452 4.09475 13.0182C4.59756 12.0909 5.45053 11.3707 6.50102 11.0466L7.34502 10.7855C8.13513 10.5424 8.97015 10.5424 9.74231 10.7765C10.0117 10.6145 10.29 10.4884 10.5953 10.3984L11.4482 10.1373C11.7266 10.0563 11.9959 10.0023 12.2743 9.97524L12.2833 4.12334C12.2833 1.8456 14.1329 0 16.4044 0H17.1048C18.1463 0 19.1788 0.342111 19.96 1.04434C20.8578 1.8366 21.3517 2.95296 21.3517 4.14135ZM9.22155 38.3885H15.74V36.1558H9.22155V38.3885ZM19.1968 28.9444C20.9746 27.2339 21.9981 24.749 22.0071 22.0662L22.0251 20.2206C22.0251 19.4913 21.8724 18.7531 21.5223 18.1139C21.0464 17.2496 20.3371 16.6284 19.52 16.2593L19.538 4.12334C19.538 2.85393 18.5144 1.81859 17.2484 1.81859H16.4044C15.6951 1.80959 15.0217 2.1427 14.5728 2.72789C14.2496 3.14202 14.1059 3.67319 14.1059 4.19536L14.0969 12.28C13.9892 12.199 13.8635 12.1179 13.7378 12.0459C13.1901 11.7578 12.5706 11.7038 11.987 11.8839L11.143 12.1449C10.6851 12.289 10.299 12.5681 10.0117 12.9372C9.89495 12.8472 9.77822 12.7661 9.64354 12.6941C9.09585 12.406 8.47632 12.352 7.89271 12.5321L7.03974 12.7932C6.11494 13.0813 5.5044 13.9005 5.43257 14.8098C5.06444 14.7288 4.67836 14.7378 4.30126 14.8548L3.44829 15.1159C2.23618 15.485 1.56278 16.7724 1.9309 17.9878L3.00834 21.526V22.2462C2.99936 24.4519 3.76254 26.5946 5.15423 28.2962C5.48644 28.6923 5.66601 29.2325 5.66601 29.8087V33.6439C5.66601 34.0221 5.97129 34.3282 6.34839 34.3282H18.5144C18.8915 34.3282 19.1968 34.0221 19.1968 33.6439V28.9444ZM15.4438 15.8992H17.7962C17.8557 15.8992 17.9152 15.9015 17.9735 15.9038L17.9736 15.9038H17.9736C18.0296 15.906 18.0846 15.9082 18.1373 15.9082L18.1553 4.12334C18.1553 3.61017 17.7423 3.19604 17.2305 3.19604H16.3865C16.1351 3.19604 15.9017 3.29507 15.7311 3.46612C15.5605 3.64618 15.4617 3.87126 15.4617 4.12334L15.4438 15.8992ZM12.6694 15.8992C12.2025 15.8992 11.7895 16.0702 11.4483 16.3403L11.4393 16.3133L10.9185 14.6297C10.8467 14.3957 10.8736 14.1436 10.9814 13.9185C11.0981 13.7024 11.2867 13.5404 11.5291 13.4684L12.382 13.2073C12.6155 13.1353 12.8669 13.1623 13.0914 13.2703C13.3068 13.3873 13.4685 13.5764 13.5403 13.8195L14.079 15.5841V15.9082L12.6694 15.8992ZM10.4247 20.8058C10.6671 20.7338 10.8557 20.5717 10.9724 20.3556C11.0891 20.1396 11.1071 19.8875 11.0263 19.6444L9.42807 14.4497C9.35624 14.2066 9.19462 14.0176 8.97914 13.9005C8.84446 13.8285 8.7008 13.7925 8.54816 13.7925C8.45838 13.7925 8.36859 13.8105 8.2788 13.8375L7.42583 14.0986C6.94099 14.2516 6.66265 14.7738 6.81529 15.26L8.41348 20.4547C8.56612 20.9408 9.08688 21.2199 9.57173 21.0669L10.4247 20.8058ZM7.2373 24.443L6.38433 24.7041C6.15987 24.7671 5.9354 24.8031 5.71992 24.7941C5.36975 24.7941 5.02856 24.704 4.72329 24.56C5.02856 25.5953 5.53136 26.5677 6.22272 27.4139C6.75246 28.0621 7.03977 28.9084 7.03977 29.7997V32.9507H17.85V30.0698C16.9163 30.727 16.18 31.0601 16.1351 31.0781C16.0453 31.1231 15.9466 31.1411 15.8568 31.1411C15.5874 31.1411 15.345 30.9881 15.2283 30.736C15.0667 30.3849 15.2283 29.9798 15.5695 29.8267C15.5874 29.8267 16.8355 29.2595 18.0745 28.1522C19.6996 26.7027 20.6424 24.479 20.6514 22.0662V20.1396C20.6514 19.3743 20.3551 18.6541 19.8164 18.1139C19.2776 17.5647 18.5593 17.2676 17.7962 17.2676L12.6604 17.2586C12.3461 17.2586 12.0858 17.5197 12.0858 17.8348C12.0858 18.312 12.2025 19.8515 13.666 19.8515H15.8119C16.4494 19.8515 16.9612 20.3646 16.9612 21.0038V22.8494C16.9612 23.9388 16.0723 24.8301 14.9859 24.8301H14.4292C13.1273 24.8301 12.0768 25.8924 12.0768 27.1889V27.4409C12.0768 27.8191 11.7715 28.1252 11.3944 28.1252C11.0173 28.1252 10.712 27.8191 10.712 27.4409V27.1889C10.712 25.1362 12.3821 23.4616 14.4292 23.4616H14.9859C15.3181 23.4616 15.5874 23.1916 15.5874 22.8584V21.2379H13.657C13.1183 21.2379 12.6424 21.1119 12.2294 20.8778C11.969 21.454 11.4842 21.9311 10.8288 22.1292L9.97578 22.3903C9.75132 22.4533 9.52685 22.4893 9.30239 22.4893C9.14975 22.4893 8.99711 22.4623 8.84448 22.4353C8.77265 23.3446 8.1621 24.1549 7.2373 24.443ZM3.84337 16.4213L4.69634 16.1602C5.18119 16.0072 5.70195 16.2863 5.85458 16.7724L7.45278 21.9671C7.60542 22.4533 7.32708 22.9754 6.84223 23.1285L5.98926 23.3896C5.50442 23.5426 4.98366 23.2635 4.83102 22.7774L3.2418 17.5827C3.08019 17.0965 3.35853 16.5744 3.84337 16.4213Z" fill="#0C40FC"/>
<path fill-rule="evenodd" clip-rule="evenodd" d="M60.3996 34.8053C58.972 34.8053 57.706 34.5172 56.6106 33.95C55.614 33.4278 54.7969 32.7166 54.1774 31.8073C54.1145 31.7173 53.9709 31.7443 53.9619 31.8523L53.6746 33.86C53.6297 34.1391 53.3962 34.3551 53.1089 34.3551H50.6308C50.3345 34.3551 50.0921 34.112 50.0921 33.8149V8.21962C50.0921 7.92252 50.3345 7.67944 50.6308 7.67944H53.4681C53.7644 7.67944 54.0068 7.92252 54.0068 8.21962V18.465C54.0068 18.582 54.1504 18.627 54.2223 18.537C54.7879 17.7897 55.5331 17.1235 56.449 16.5383C57.4815 15.8721 58.8193 15.539 60.4445 15.539C62.2222 15.539 63.7845 15.9621 65.1403 16.7994C66.4961 17.6367 67.5645 18.7891 68.3367 20.2475C69.1088 21.706 69.5039 23.3625 69.5039 25.2171C69.5039 27.0718 69.1178 28.7193 68.3367 30.1688C67.5645 31.6182 66.4961 32.7526 65.1403 33.5809C63.7755 34.3911 62.1953 34.8053 60.3996 34.8053ZM59.7351 31.4022C61.4141 31.4022 62.7879 30.826 63.8743 29.6826C64.9607 28.5302 65.4994 27.0357 65.4994 25.1811C65.4994 23.9747 65.257 22.8944 64.7632 21.9581C64.2694 21.0218 63.596 20.2835 62.734 19.7524C61.8721 19.2212 60.8754 18.9511 59.7351 18.9511C58.0561 18.9511 56.6824 19.5363 55.614 20.6977C54.5455 21.8591 54.0068 23.3535 54.0068 25.1811C54.0068 27.0357 54.5455 28.5392 55.614 29.6826C56.6824 30.826 58.0561 31.4022 59.7351 31.4022ZM45.0192 17.5557C43.6185 16.2052 41.6342 15.539 39.0663 15.539C37.6387 15.539 36.3279 15.7911 35.1247 16.2953C33.9306 16.7994 32.9429 17.5287 32.1708 18.483C31.8116 18.9241 31.5243 19.4013 31.3088 19.9234C31.1921 20.2025 31.3268 20.5176 31.5961 20.6347L33.8767 21.607C34.1371 21.715 34.4334 21.607 34.568 21.3549C34.9541 20.6257 35.5288 19.9955 36.2022 19.5543C37.0013 19.0231 37.944 18.7531 39.0304 18.7531C40.2605 18.7531 41.2661 19.1132 42.0472 19.8244C42.3615 20.1125 42.6129 20.4636 42.8014 20.8687L42.8374 20.9408C43.4299 22.4623 42.3615 23.3806 41.6881 23.3806H38.4109C35.843 23.3806 33.8767 23.9027 32.494 24.9381C31.1113 25.9734 30.4199 27.3869 30.4199 29.1604C30.4199 30.1778 30.6623 31.1051 31.1562 31.9604C31.65 32.8156 32.4042 33.4998 33.4098 34.022C34.4244 34.5442 35.6994 34.7963 37.2527 34.7963C38.8509 34.7963 40.1438 34.4542 41.1314 33.7609C42.0113 33.1487 42.7027 32.4015 43.2055 31.5372C43.2594 31.4382 43.412 31.4742 43.4299 31.5912L43.6724 33.842C43.6993 34.1301 43.9507 34.3551 44.247 34.3551H46.5904C46.8867 34.3551 47.1291 34.1121 47.1291 33.815V23.0565C47.1291 20.7337 46.4288 18.8971 45.0192 17.5557ZM42.4154 28.8453C42.0113 29.6826 41.4457 30.3578 40.7184 30.862C39.9911 31.3662 39.0933 31.6182 38.0428 31.6182C36.9564 31.6182 36.1034 31.3752 35.4749 30.898C34.8464 30.4118 34.5321 29.7546 34.5321 28.9174C34.5321 28.0981 34.8554 27.4229 35.5108 26.8827C36.1662 26.3425 37.2706 26.0634 38.8149 26.0634H41.6971C42.2986 26.0634 42.7117 25.8474 42.9361 25.6853C43.0169 25.6313 43.1337 25.6943 43.1247 25.7933C43.0618 26.9637 42.7925 28.0621 42.4154 28.8453ZM85.9078 28.4222C86.0425 28.1791 86.3388 28.0711 86.5992 28.1881L88.6912 29.1154C88.9875 29.2415 89.1042 29.6016 88.9426 29.8807C88.1525 31.2851 87.2546 32.3025 86.276 33.0677C84.8035 34.2291 82.9988 34.8143 80.8259 34.8143C79.0302 34.8143 77.432 34.4091 76.0403 33.6079C74.6486 32.7976 73.5622 31.6813 72.7721 30.2498C71.982 28.8183 71.5869 27.1438 71.5869 25.2442C71.5869 23.3175 71.982 21.625 72.7541 20.1665C73.5263 18.708 74.6127 17.5737 76.0044 16.7544C77.3961 15.9351 79.0122 15.53 80.8618 15.53C82.6576 15.53 84.2288 15.9351 85.5577 16.7364C86.8865 17.5377 87.928 18.609 88.6643 19.9414C89.4095 21.2739 89.7776 22.7504 89.7776 24.3529C89.7776 24.5825 89.7702 24.8197 89.7621 25.0779L89.7597 25.1541C89.7597 25.2812 89.7517 25.4161 89.7433 25.5591L89.7417 25.5863C89.7238 25.8744 89.4903 26.0994 89.203 26.0994H75.6453C75.5375 26.0994 75.4477 26.1985 75.4567 26.3065C75.6093 27.9811 76.1929 29.2685 77.1986 30.1598C78.2491 31.0871 79.4612 31.5462 80.8439 31.5462C81.9483 31.5462 82.9539 31.2581 83.717 30.772C84.9292 30.0067 85.6026 28.9984 85.9078 28.4222ZM80.8439 18.7531C79.542 18.7531 78.3837 19.1492 77.3691 19.9234C76.3995 20.6707 75.7979 21.76 75.5465 23.2095C75.5285 23.3175 75.6183 23.4256 75.735 23.4256H85.6654C85.7732 23.4256 85.8629 23.3265 85.854 23.2185C85.7462 21.8861 85.2434 20.8147 84.3545 20.0135C83.4207 19.1762 82.2445 18.7531 80.8439 18.7531Z" fill="#0C40FC"/>
</svg>
