<svg width="16" height="14" viewBox="0 0 16 14" fill="none" xmlns="http://www.w3.org/2000/svg">
<path fill-rule="evenodd" clip-rule="evenodd" d="M7.5208 3.81174L7.55438 4.36538L6.99479 4.29758C4.95791 4.03771 3.17843 3.15641 1.66756 1.67629L0.928908 0.94187L0.73865 1.48421C0.33575 2.69317 0.593158 3.96992 1.43253 4.82862C1.8802 5.30317 1.77948 5.37096 1.00725 5.08849C0.73865 4.9981 0.503625 4.93031 0.481242 4.96421C0.4029 5.0433 0.6715 6.07148 0.884142 6.47823C1.17513 7.04317 1.76828 7.5968 2.4174 7.92446L2.96579 8.18433L2.31668 8.19563C1.68994 8.19563 1.66756 8.20693 1.73471 8.4442C1.95854 9.17862 2.84268 9.95823 3.82755 10.2972L4.52143 10.5345L3.91708 10.896C3.02175 11.4158 1.96973 11.7095 0.917717 11.7321C0.414092 11.7434 0 11.7886 0 11.8225C0 11.9355 1.36538 12.5682 2.15999 12.8168C4.54382 13.5512 7.37531 13.2349 9.50173 11.9807C11.0126 11.0881 12.5235 9.3142 13.2286 7.5968C13.6091 6.68161 13.9896 5.0094 13.9896 4.20719C13.9896 3.68745 14.0232 3.61966 14.6499 2.99823C15.0192 2.63667 15.3662 2.24122 15.4333 2.12823C15.5452 1.91356 15.534 1.91356 14.9633 2.10564C14.012 2.4446 13.8777 2.3994 14.3477 1.89096C14.6947 1.5294 15.1088 0.874078 15.1088 0.682C15.1088 0.648104 14.9409 0.704597 14.7506 0.806286C14.5492 0.919273 14.1015 1.08875 13.7658 1.19044L13.1614 1.38252L12.613 1.00966C12.3108 0.806286 11.8856 0.580312 11.6617 0.51252C11.0909 0.354338 10.218 0.376935 9.70318 0.557714C8.30422 1.06616 7.42008 2.3768 7.5208 3.81174Z" fill="black"/>
</svg>
