<svg width="47" height="31" viewBox="0 0 47 31" fill="none" xmlns="http://www.w3.org/2000/svg">
<path d="M6.86683 29.0674C6.87091 29.3018 6.80576 29.532 6.67969 29.7288C6.54681 29.9284 6.3592 30.0845 6.13982 30.178C5.87847 30.29 5.59648 30.3445 5.31263 30.3379C5.08984 30.3417 4.86724 30.3229 4.64817 30.2818C4.45483 30.2394 4.26721 30.1738 4.08936 30.0863V29.1225C4.29254 29.2277 4.50623 29.3108 4.72682 29.3704C4.92471 29.4263 5.12895 29.4561 5.33443 29.4589C5.45679 29.4685 5.57907 29.4394 5.68431 29.3756C5.71891 29.3518 5.74715 29.3197 5.76653 29.2822C5.78591 29.2448 5.79583 29.203 5.7954 29.1607C5.79643 29.1091 5.78076 29.0585 5.75075 29.0166C5.71068 28.9667 5.66195 28.9247 5.60696 28.8924C5.54103 28.8505 5.36523 28.7647 5.07955 28.6351C4.87115 28.5467 4.67544 28.4306 4.49763 28.2897C4.37396 28.1859 4.27557 28.0548 4.21004 27.9066C4.14432 27.7442 4.11251 27.5699 4.11661 27.3945C4.10912 27.2289 4.14147 27.0639 4.2109 26.9137C4.28033 26.7635 4.38477 26.6325 4.51528 26.5319C4.83644 26.3089 5.22197 26.2001 5.61111 26.2226C6.04508 26.2278 6.47305 26.3256 6.86683 26.5099L6.53877 27.3453C6.24021 27.1921 5.91293 27.1044 5.57842 27.0879C5.47198 27.0792 5.36557 27.1051 5.27474 27.1618C5.24541 27.1824 5.22144 27.2098 5.2049 27.2418C5.18836 27.2737 5.17973 27.3092 5.17975 27.3453C5.18166 27.3876 5.19362 27.4288 5.21463 27.4655C5.23563 27.5021 5.26507 27.5332 5.30044 27.5559C5.50957 27.6865 5.72863 27.8 5.95555 27.8956C6.22937 28.0015 6.47367 28.1729 6.6675 28.395C6.80577 28.5907 6.87587 28.8272 6.86683 29.0674Z" fill="black"/>
<path d="M10.9128 27.5533C10.9245 27.7442 10.8956 27.9355 10.828 28.1142C10.7604 28.2929 10.6557 28.455 10.5209 28.5894C10.2099 28.8507 9.81144 28.9816 9.40767 28.9552H9.10659V30.2833H8.03516V26.2797H9.40767C9.90834 26.2797 10.2844 26.3901 10.5359 26.6109C10.6642 26.7299 10.7645 26.8762 10.8297 27.0392C10.8949 27.2022 10.9233 27.3778 10.9128 27.5533ZM9.10659 28.0737H9.30177C9.4427 28.0811 9.58079 28.0317 9.68565 27.9364C9.73426 27.887 9.77203 27.8278 9.79654 27.7627C9.82104 27.6976 9.83172 27.6281 9.82789 27.5585C9.82789 27.2886 9.67968 27.1536 9.38327 27.1534H9.10659V28.0737Z" fill="black"/>
<path d="M15.8108 28.276C15.8108 28.9495 15.6472 29.4615 15.32 29.8122C14.9927 30.1628 14.5136 30.338 13.8826 30.3378C13.2604 30.3378 12.7835 30.1617 12.4517 29.8095C12.12 29.4573 11.9541 28.9444 11.9541 28.2708C11.9541 27.6041 12.1191 27.0952 12.4491 26.7441C12.779 26.3924 13.2585 26.2167 13.8878 26.2169C14.519 26.2169 14.9973 26.3912 15.3226 26.7399C15.6481 27.0884 15.8108 27.6005 15.8108 28.276ZM13.0824 28.276C13.0824 29.0501 13.3491 29.4373 13.8826 29.4374C13.9986 29.4457 14.1148 29.4241 14.2204 29.3747C14.3259 29.3253 14.4173 29.2497 14.486 29.1549C14.6159 28.8792 14.683 28.5776 14.6825 28.2723C14.682 27.967 14.6139 27.6656 14.4832 27.3903C14.4161 27.2956 14.3263 27.2196 14.2221 27.1695C14.118 27.1195 14.0029 27.097 13.8878 27.1042C13.3508 27.1041 13.0823 27.4948 13.0824 28.276H13.0824Z" fill="black"/>
<path d="M18.1535 28.8263V30.2833H17.082V26.2797H18.3811C19.4588 26.2797 19.9977 26.674 19.9978 27.4626C19.9991 27.6881 19.9364 27.9093 19.8172 28.1001C19.698 28.2908 19.5272 28.4431 19.3251 28.5391L20.4806 30.2833H19.2654L18.4247 28.8263H18.1535ZM18.1535 28.0134H18.3541C18.7284 28.0134 18.9155 27.8462 18.9155 27.5119C18.9155 27.2367 18.732 27.0989 18.365 27.0984H18.1535V28.0134Z" fill="black"/>
<path d="M23.146 30.2833H22.0746V27.1644H21.1064V26.2797H24.1115V27.1644H23.146L23.146 30.2833Z" fill="black"/>
<path d="M27.8268 29.0674C27.8309 29.3018 27.7657 29.532 27.6396 29.7288C27.5068 29.9284 27.3192 30.0845 27.0998 30.178C26.8384 30.29 26.5564 30.3445 26.2726 30.3379C26.0498 30.3417 25.8272 30.3229 25.6081 30.2818C25.4148 30.2394 25.2272 30.1738 25.0493 30.0863V29.1225C25.2525 29.2277 25.4662 29.3108 25.6868 29.3704C25.8847 29.4263 26.0889 29.4561 26.2944 29.4589C26.4168 29.4685 26.539 29.4394 26.6443 29.3756C26.6789 29.3518 26.7071 29.3197 26.7265 29.2822C26.7459 29.2447 26.7558 29.203 26.7554 29.1607C26.7564 29.1091 26.7407 29.0585 26.7107 29.0166C26.6706 28.9667 26.6219 28.9247 26.5669 28.8924C26.501 28.8505 26.3252 28.7647 26.0395 28.6351C25.8311 28.5467 25.6354 28.4306 25.4576 28.2897C25.3339 28.1859 25.2355 28.0548 25.17 27.9066C25.1043 27.7442 25.0725 27.5699 25.0766 27.3945C25.0691 27.2289 25.1014 27.0639 25.1709 26.9137C25.2403 26.7635 25.3447 26.6325 25.4752 26.5319C25.7964 26.3089 26.1819 26.2001 26.5711 26.2226C27.005 26.2278 27.433 26.3256 27.8268 26.5099L27.4987 27.3453C27.2002 27.1921 26.8729 27.1044 26.5384 27.0879C26.4319 27.0792 26.3255 27.1051 26.2347 27.1618C26.2054 27.1824 26.1814 27.2098 26.1648 27.2418C26.1483 27.2737 26.1397 27.3092 26.1397 27.3453C26.1416 27.3876 26.1536 27.4288 26.1746 27.4655C26.1956 27.5021 26.225 27.5332 26.2604 27.5559C26.4695 27.6865 26.6886 27.8 26.9155 27.8956C27.1893 28.0015 27.4336 28.1729 27.6275 28.395C27.7657 28.5907 27.8358 28.8272 27.8268 29.0674Z" fill="black"/>
<path d="M28.9956 26.2798H30.3788C30.793 26.2521 31.2072 26.3358 31.5789 26.5224C31.7063 26.5999 31.8102 26.7112 31.8793 26.8442C31.9484 26.9772 31.9801 27.1267 31.9709 27.2766C31.9768 27.4818 31.9169 27.6835 31.8001 27.8515C31.6923 28.0061 31.532 28.1154 31.3497 28.1587V28.1859C31.5604 28.2291 31.7495 28.3453 31.8842 28.5145C32.0011 28.6905 32.0591 28.8997 32.0495 29.1115C32.0559 29.277 32.0223 29.4416 31.9517 29.5912C31.8811 29.7407 31.7755 29.8707 31.6441 29.9699C31.3203 30.1951 30.9315 30.3054 30.5389 30.2833H28.9956L28.9956 26.2798ZM30.067 27.8159H30.3897C30.5156 27.8237 30.6407 27.7902 30.7463 27.7205C30.7887 27.6869 30.8223 27.6434 30.8443 27.5937C30.8663 27.544 30.8759 27.4897 30.8724 27.4354C30.8724 27.2111 30.7043 27.0988 30.3681 27.0984H30.067V27.8159ZM30.067 28.6073V29.4479H30.4439C30.7785 29.4479 30.9457 29.3056 30.9456 29.0208C30.949 28.9626 30.9385 28.9045 30.9152 28.8511C30.8919 28.7978 30.8563 28.7509 30.8114 28.7142C30.6972 28.6356 30.5603 28.598 30.4224 28.6073H30.067Z" fill="black"/>
<path d="M37.0042 28.276C37.0042 28.9495 36.8405 29.4615 36.5133 29.8122C36.186 30.1628 35.7069 30.338 35.0759 30.3378C34.4538 30.3378 33.9768 30.1617 33.645 29.8095C33.3133 29.4573 33.1475 28.9444 33.1475 28.2708C33.1475 27.6041 33.3124 27.0952 33.6424 26.7441C33.9723 26.3924 34.4519 26.2167 35.0811 26.2169C35.7124 26.2169 36.1906 26.3912 36.5159 26.7399C36.8414 27.0884 37.0042 27.6005 37.0042 28.276ZM34.2757 28.276C34.2757 29.0501 34.5425 29.4373 35.0759 29.4374C35.192 29.4457 35.3082 29.4241 35.4137 29.3747C35.5193 29.3253 35.6107 29.2497 35.6794 29.1549C35.8092 28.8792 35.8764 28.5776 35.8759 28.2723C35.8754 27.967 35.8073 27.6656 35.6765 27.3903C35.6095 27.2956 35.5196 27.2196 35.4155 27.1695C35.3113 27.1195 35.1963 27.097 35.0811 27.1042C34.5441 27.1041 34.2757 27.4948 34.2757 28.276Z" fill="black"/>
<path d="M41.9861 28.276C41.9861 28.9495 41.8225 29.4615 41.4953 29.8122C41.168 30.1628 40.6888 30.338 40.0579 30.3378C39.4357 30.3378 38.9588 30.1617 38.627 29.8095C38.2953 29.4573 38.1294 28.9444 38.1294 28.2708C38.1294 27.6041 38.2944 27.0952 38.6244 26.7441C38.9543 26.3924 39.4338 26.2167 40.0631 26.2169C40.6943 26.2169 41.1726 26.3912 41.4979 26.7399C41.8234 27.0884 41.9861 27.6005 41.9861 28.276ZM39.2577 28.276C39.2577 29.0501 39.5244 29.4373 40.0579 29.4374C40.1739 29.4457 40.2901 29.4241 40.3957 29.3747C40.5012 29.3253 40.5926 29.2497 40.6613 29.1549C40.7912 28.8792 40.8583 28.5776 40.8578 28.2723C40.8573 27.967 40.7892 27.6656 40.6585 27.3903C40.5914 27.2956 40.5016 27.2196 40.3974 27.1695C40.2933 27.1195 40.1782 27.097 40.0631 27.1042C39.5261 27.1041 39.2576 27.4948 39.2577 28.276Z" fill="black"/>
<path d="M46.6455 30.2833H45.4357L44.6519 28.7524L44.3347 28.9442V30.2833H43.2578V26.2797H44.3347V28.0187C44.4331 27.8411 44.5427 27.6701 44.6628 27.5066L45.4954 26.2797H46.667L45.4168 28.0737L46.6455 30.2833Z" fill="black"/>
<path d="M7.61768 4.09061C7.61768 4.09061 7.64087 4.14782 7.6762 4.24635C7.66655 4.19056 7.65582 4.13525 7.6432 4.07977C7.6348 4.08307 7.62654 4.08684 7.61768 4.09061" fill="#010101"/>
<path d="M7.61768 4.09061C7.61768 4.09061 7.64087 4.14782 7.6762 4.24635C7.66655 4.19056 7.65582 4.13525 7.6432 4.07977C7.6348 4.08307 7.62654 4.08684 7.61768 4.09061" fill="#010101"/>
<path d="M7.61768 4.09061C7.61768 4.09061 7.64087 4.14782 7.6762 4.24635C7.66655 4.19056 7.65582 4.13525 7.6432 4.07977C7.6348 4.08307 7.62654 4.08684 7.61768 4.09061" fill="#010101"/>
<path d="M37.008 9.55011H30.6314C30.766 9.59908 30.8884 9.67742 30.9897 9.77955C31.0901 9.88126 31.1744 9.99792 31.2398 10.1254C31.3062 10.2547 31.3566 10.3918 31.3898 10.5336C31.4146 10.6374 31.4303 10.7433 31.4369 10.8499V14.487C31.4109 14.7442 31.3291 14.9925 31.1975 15.2143C31.1287 15.3303 31.046 15.4373 30.9512 15.5328C30.8573 15.6281 30.7494 15.7082 30.6313 15.7703H34.4128C34.2642 15.7346 34.1267 15.6626 34.0121 15.5606C33.906 15.4642 33.8174 15.3497 33.7505 15.2223C33.6823 15.0917 33.6343 14.9513 33.6082 14.806C33.5799 14.6574 33.5656 14.5064 33.5654 14.3551V12.9559C33.7812 12.9559 33.984 12.9623 34.1739 12.975C34.3502 12.9851 34.5235 13.0259 34.686 13.0957C34.8402 13.1652 34.9751 13.272 35.0787 13.4067C35.2047 13.5825 35.2903 13.7843 35.3293 13.9976V11.1521C35.2493 11.3508 35.143 11.5377 35.0133 11.7076C34.9149 11.8326 34.7899 11.9336 34.6475 12.0032C34.5007 12.0707 34.3428 12.1103 34.1818 12.1201C34.007 12.1327 33.8016 12.1391 33.5654 12.1393V10.429L34.7208 10.4364C34.9003 10.4364 35.0864 10.4441 35.279 10.4595C35.4688 10.4748 35.6569 10.5061 35.8414 10.5534C36.0232 10.5998 36.1989 10.6675 36.3652 10.7551C36.531 10.8427 36.6786 10.9615 36.8002 11.1051C36.8453 11.1576 36.8865 11.2135 36.9235 11.2722C36.9615 11.3308 36.99 11.3951 37.008 11.4628V9.55011Z" fill="#61B510"/>
<path d="M37.6167 9.55011V11.9061C37.6498 11.66 37.7482 11.4274 37.9015 11.2332C38.0486 11.0506 38.2307 10.9 38.437 10.7903C38.6491 10.6773 38.878 10.5998 39.1147 10.5609C39.3524 10.5198 39.5943 10.5094 39.8346 10.5299V14.5662C39.8247 14.6689 39.804 14.7702 39.7728 14.8684C39.728 15.0108 39.6604 15.1447 39.5725 15.2649C39.4853 15.3843 39.3802 15.4892 39.261 15.576C39.1387 15.6648 39.0016 15.7306 38.8562 15.7703H42.8997C42.7382 15.7426 42.5853 15.6774 42.453 15.5798C42.3254 15.4852 42.2158 15.368 42.1296 15.2339C42.0419 15.0986 41.9756 14.9503 41.933 14.7944C41.8897 14.6387 41.8676 14.4778 41.8674 14.3162V10.5299H42.0678C42.2356 10.5338 42.403 10.5505 42.5683 10.5801C42.7806 10.6162 42.9876 10.679 43.1846 10.7668C43.3972 10.8633 43.5883 11.0021 43.7465 11.175C43.9242 11.3733 44.0419 11.6189 44.0854 11.8827V9.55011H37.6167Z" fill="#61B510"/>
<path d="M26.8274 15.4515C26.7298 15.5413 26.6196 15.616 26.5002 15.6731C26.3924 15.7223 26.3229 15.7547 26.292 15.7702H30.6436C30.572 15.7549 30.5031 15.7288 30.4392 15.6928C30.3768 15.6572 30.3164 15.6183 30.2583 15.576C30.104 15.4661 29.9643 15.3368 29.8424 15.1911C29.7279 15.0512 29.6274 14.9001 29.5422 14.7403C29.4517 14.5698 29.3732 14.3931 29.3074 14.2115L28.9913 13.2635L28.5642 11.9839L27.7402 9.54993H24.1281C24.2423 9.57863 24.3524 9.62187 24.4557 9.67863C24.548 9.73377 24.6321 9.8017 24.7057 9.88042C24.792 9.9734 24.8531 10.0874 24.8828 10.2112C24.9084 10.3237 24.9084 10.4406 24.8828 10.5532C24.8589 10.6672 24.8254 10.7789 24.7829 10.8873C24.6802 11.1571 24.6018 11.3709 24.5477 11.5288C24.5315 11.5767 24.5142 11.6212 24.4957 11.6653L23.8431 13.3677C23.8074 13.4663 23.7535 13.6114 23.6813 13.8032C23.6094 13.9951 23.5286 14.1947 23.4388 14.4019C23.349 14.6094 23.254 14.8038 23.1538 14.9851C23.0814 15.1291 22.9865 15.2603 22.8727 15.3738C22.7863 15.4457 22.6963 15.5132 22.6031 15.576C22.5111 15.6379 22.4377 15.6848 22.3838 15.7157C22.3533 15.7321 22.3238 15.7503 22.2954 15.7702H25.5451C25.3146 15.7215 25.1086 15.5921 24.9636 15.4047C24.8243 15.2129 24.7476 14.9819 24.7443 14.7441C24.7476 14.6703 24.7593 14.5973 24.7792 14.5262C24.8019 14.4329 24.8304 14.3386 24.8638 14.2424C24.8968 14.1466 24.9315 14.0546 24.9678 13.9665C25.0032 13.8783 25.0293 13.8106 25.0446 13.7642H26.8698C26.885 13.806 26.9056 13.8642 26.9316 13.9393C26.9571 14.0144 26.984 14.0909 27.0123 14.1687C27.0404 14.2465 27.0664 14.3216 27.0895 14.3944C27.1123 14.4667 27.1291 14.5211 27.1394 14.5572C27.1884 14.7326 27.1747 14.9198 27.1008 15.086C27.0339 15.2245 26.9411 15.3487 26.8274 15.4515L26.8274 15.4515ZM25.2449 13.0256L25.8918 11.0042L26.5695 13.0256H25.2449Z" fill="#61B510"/>
<path d="M20.3436 12.6685C20.5005 12.5959 20.6453 12.4991 20.7729 12.3817L20.8129 12.3414C20.8724 12.2821 20.9277 12.2188 20.9784 12.1518C20.9849 12.1429 20.9924 12.1344 20.9989 12.1251C21.2556 11.8119 21.379 11.4088 21.3423 11.004H21.3418C21.3316 10.8271 21.2865 10.6541 21.2094 10.495C21.1625 10.3982 21.1071 10.3059 21.0439 10.219C20.9411 10.0737 20.8068 9.95401 20.6512 9.86906C20.4908 9.78044 20.32 9.71249 20.1428 9.66681C19.9623 9.62014 19.7782 9.58902 19.5924 9.57378C19.4047 9.5579 19.2314 9.5501 19.0724 9.55036H14.8369C14.9802 9.58681 15.115 9.65155 15.2334 9.74083C15.3487 9.84048 15.4419 9.96367 15.5067 10.1023C15.5979 10.3046 15.6427 10.5251 15.6378 10.7474C15.6429 10.8825 15.6455 11.02 15.6457 11.1599V14.3474C15.6448 14.4876 15.6279 14.6273 15.5954 14.7637C15.5624 14.905 15.5133 15.0419 15.4491 15.1718C15.3855 15.3006 15.3024 15.4186 15.2027 15.5214C15.1022 15.6257 14.9834 15.7101 14.8523 15.7705H18.5105C18.4303 15.741 18.3518 15.7072 18.2753 15.6692C18.1851 15.6238 18.1031 15.5634 18.0328 15.4905C17.9472 15.3997 17.8781 15.2943 17.8287 15.1793C17.762 15.0186 17.7217 14.8478 17.7097 14.6739C17.6835 14.3896 17.6731 14.104 17.6785 13.8186C17.6837 13.5286 17.6863 13.2436 17.6865 12.9637H17.9329C18.0462 12.9637 18.156 12.9632 18.2624 12.9622C19.2271 15.237 19.5627 15.7705 20.5229 15.7705H22.6358C21.9126 15.7705 20.9882 14.0607 20.3436 12.6685L20.3436 12.6685ZM17.5554 12.1161V10.4678C17.7455 10.4678 17.9338 10.464 18.1215 10.456C18.2914 10.4464 18.4618 10.4648 18.6258 10.5104C18.7701 10.5514 18.8971 10.6387 18.9879 10.7592C19.0927 10.9273 19.1412 11.125 19.1263 11.3232C19.1407 11.5094 19.0873 11.6946 18.9762 11.844C18.8757 11.9583 18.7426 12.0385 18.5952 12.0734C18.4289 12.1134 18.258 12.1305 18.0871 12.1242C17.902 12.1185 17.7251 12.1161 17.5554 12.1161" fill="#61B510"/>
<path d="M16.0371 2.32432C15.766 2.44931 15.5339 2.64683 15.366 2.89548C15.1982 3.14413 15.1009 3.43443 15.0848 3.73491L15.0834 3.73538C14.8621 3.57739 14.6053 3.47761 14.3362 3.44506C14.0672 3.41252 13.7943 3.44824 13.5423 3.549C13.5628 3.61782 13.5878 3.68523 13.617 3.75078C13.7126 3.96313 13.8518 4.15249 14.0255 4.30629C14.1991 4.46008 14.4033 4.57478 14.6242 4.64276C14.3789 5.02688 14.0556 5.354 13.6757 5.60248C13.5104 5.70973 13.3209 5.77299 13.1248 5.78634C12.8779 5.81589 12.6279 5.76993 12.4072 5.65441C12.1865 5.53889 12.0052 5.35914 11.8868 5.13841C11.7377 5.40765 11.4955 5.61188 11.2066 5.71196C10.9176 5.81203 10.6022 5.80092 10.3209 5.68073C10.246 5.63673 10.1722 5.59021 10.1016 5.54008C9.49801 5.11626 9.05828 4.49468 8.85697 3.78079C8.86615 3.78032 8.87503 3.77937 8.88437 3.77843C9.13461 3.75032 9.37498 3.66399 9.58659 3.52623C9.7982 3.38847 9.97528 3.20304 10.1039 2.98451C10.132 2.93744 10.1576 2.88892 10.1807 2.83914C9.97752 2.68709 9.7421 2.58489 9.49305 2.54065C9.244 2.4964 8.98817 2.51133 8.74583 2.58425C8.69602 2.59933 8.64636 2.61709 8.59749 2.63689C8.6143 2.05921 8.18486 1.19017 7.65828 0.873987C7.59114 0.83526 7.52192 0.80032 7.45095 0.769328L7.40457 0.75L7.3725 0.79133C7.3311 0.845539 7.29305 0.90227 7.25857 0.961202C6.94804 1.49472 7.03365 2.45239 7.32409 2.95072C7.2721 2.95685 7.21996 2.9658 7.16891 2.97696C6.94879 3.02504 6.74096 3.11872 6.55855 3.25208C6.37614 3.38544 6.22314 3.55557 6.10922 3.75171C6.0816 3.79918 6.05645 3.84807 6.03388 3.89818C6.07788 3.93054 6.12349 3.9606 6.17055 3.98822C6.3874 4.1172 6.63095 4.19358 6.88202 4.21133C7.13309 4.22908 7.38481 4.18773 7.61734 4.09053C7.62622 4.08676 7.63462 4.08346 7.64287 4.07969C7.79404 4.74409 7.73173 5.43983 7.46495 6.06607C7.46402 6.06324 7.46355 6.05994 7.46262 6.05711C7.45842 6.07298 7.45281 6.08901 7.44814 6.10551C7.43009 6.14575 7.41141 6.18612 7.39195 6.22604C7.34494 6.32258 7.29299 6.41658 7.2363 6.50766C7.04539 6.74997 6.77235 6.9123 6.46987 6.96332C6.16739 7.01434 5.85691 6.95043 5.59836 6.78393C5.59749 7.03498 5.52198 7.27998 5.38161 7.48721C5.24124 7.69444 5.04248 7.85434 4.81106 7.94621C4.7008 7.99008 4.58483 8.0176 4.46676 8.02792C3.95427 8.01915 3.45137 7.88625 3.00035 7.64039C3.16168 7.47341 3.28587 7.27361 3.36465 7.05432C3.44343 6.83504 3.47498 6.60131 3.45719 6.36874C3.45159 6.29597 3.441 6.16224 3.42699 6.09325C2.86415 6.1646 2.39937 6.67125 2.16511 6.94343H2.16371C1.85287 6.67125 1.28163 6.18565 0.656048 6.23358C0.511879 6.25682 0.371399 6.29925 0.238281 6.35978C0.936648 6.88905 1.60174 7.46166 2.22971 8.07429C2.67084 8.50096 3.09421 8.95606 3.4986 9.42201C4.06051 10.0709 5.02027 11.3815 5.0212 11.381C5.27133 11.616 5.6032 11.7418 5.94469 11.7312C5.96565 11.728 5.98489 11.7177 5.99914 11.7018C6.01338 11.686 6.02175 11.6656 6.02283 11.6443C6.02687 11.61 5.96835 11.5894 5.93815 11.5758C5.82414 11.5344 5.72203 11.4652 5.64093 11.3743C5.55984 11.2835 5.50227 11.1737 5.47338 11.055C5.29266 10.4834 6.98617 9.45156 9.46152 8.81714C11.9373 8.1832 13.9257 8.2602 14.0405 8.84999C14.0718 8.96822 14.0737 9.09243 14.0459 9.21156C14.0182 9.33069 13.9617 9.44105 13.8815 9.5328C13.8615 9.55952 13.8197 9.6065 13.8407 9.63463C13.8517 9.65295 13.8688 9.66685 13.8888 9.67395C13.9089 9.68106 13.9307 9.68093 13.9507 9.67361C14.2548 9.51725 14.4857 9.24634 14.5936 8.91944C14.5936 8.91944 14.8594 7.29498 15.042 6.45314C15.1735 5.8478 15.331 5.25063 15.5143 4.66163C15.7747 3.82366 16.0867 3.00294 16.4485 2.20427C16.3067 2.22572 16.1684 2.26609 16.0371 2.32433" fill="#F7760D"/>
<path d="M7.29163 10.083C8.62848 9.50625 10.0365 9.1148 11.4773 8.91931C11.4773 8.91931 14.2878 9.19857 14.2878 12.5292C14.2878 15.8598 11.9412 17.7612 8.74684 17.7612C5.55298 17.7612 3.86865 16.3398 3.86865 14.8256C3.86865 13.3113 4.94686 13.0701 5.44838 13.0701C5.94942 13.0701 6.85611 13.5273 6.85611 14.7139C6.85611 14.7139 5.95363 14.4901 5.95363 15.2784C5.95363 16.0667 7.02063 16.5576 8.48378 16.5576C9.94645 16.5576 12.0123 15.9104 12.0123 13.0271C12.0123 9.95069 10.6022 9.81318 9.62191 9.81318V15.0903C9.62998 15.2201 9.68826 15.3415 9.78417 15.4283C9.88009 15.5151 10.006 15.5604 10.1346 15.5543C10.1346 15.5543 9.61911 15.9936 8.34338 15.9936C7.06764 15.9936 6.70419 15.5801 6.70419 15.5801C6.70419 15.5801 7.30797 15.5825 7.30797 15.0447C7.30797 14.5074 7.29163 10.083 7.29163 10.083" fill="#61B510"/>
<path d="M42.6675 21.1112C42.6279 20.993 42.5772 20.8789 42.516 20.7705C42.4114 20.5844 42.2667 20.4245 42.0925 20.3027L42.0916 20.3017C42.0703 20.2863 42.0494 20.2708 42.0284 20.2563L42.0242 20.2535C41.9296 20.1866 41.831 20.1256 41.7291 20.0709C41.004 19.681 40.2591 19.6791 39.6614 19.5373C39.5668 19.5152 39.4735 19.4875 39.3821 19.4544C39.3487 19.4412 39.3156 19.4275 39.2827 19.4126C39.1561 19.3556 39.0381 19.2809 38.9321 19.1907C38.8384 19.1091 38.7714 19.0008 38.7397 18.88C38.7234 18.8314 38.7177 18.7798 38.723 18.7288C38.7283 18.6778 38.7444 18.6285 38.7704 18.5844C38.8491 18.4635 38.953 18.3613 39.0749 18.285C39.2047 18.203 39.3462 18.1414 39.4945 18.1024C39.6541 18.0604 39.8186 18.0407 39.9834 18.0438C40.1541 18.0463 40.3238 18.0712 40.4882 18.118C40.6763 18.1652 40.8603 18.2277 41.0384 18.3047C41.1664 18.3618 41.2868 18.4348 41.3969 18.522C41.4506 18.566 41.5019 18.6128 41.5507 18.6623C41.6022 18.7139 41.6558 18.7683 41.7124 18.8256C41.7686 18.8823 41.8318 18.9457 41.9011 19.0161C41.9703 19.086 42.0563 19.1701 42.159 19.2685V16.9904C42.159 16.9904 41.9862 17.4259 41.3005 17.4259C41.1086 17.4207 40.917 17.4052 40.7266 17.3794C40.5315 17.3479 40.3339 17.316 40.1336 17.2818C39.9121 17.2468 39.6879 17.2326 39.4638 17.2395C39.1554 17.2388 38.8483 17.2806 38.5511 17.3638C38.2678 17.4408 38.0006 17.5685 37.7619 17.7406C37.5172 17.915 37.3194 18.1481 37.1863 18.419C37.0531 18.6898 36.9888 18.9898 36.9992 19.292C36.9863 19.5656 37.0491 19.8374 37.1804 20.077C37.2759 20.2367 37.394 20.3815 37.5309 20.5068L37.5328 20.5082C37.5368 20.5125 37.542 20.5162 37.5462 20.5205C37.5616 20.5335 37.5768 20.5467 37.5923 20.5594C37.6164 20.58 37.641 20.5997 37.6657 20.6195C38.1648 21.0061 38.8694 21.1934 39.6841 21.3815C39.7 21.3853 39.7143 21.3881 39.7297 21.3914L39.7358 21.3928C39.8193 21.4115 39.9031 21.4331 39.9871 21.4576C40.142 21.5008 40.2917 21.5607 40.4339 21.6362C40.5491 21.6954 40.6513 21.7772 40.7346 21.877C40.7691 21.9177 40.7928 21.9665 40.8035 22.0189C40.8142 22.0714 40.8116 22.1257 40.7959 22.1768C40.7773 22.2649 40.7402 22.3479 40.6872 22.4203C40.6341 22.4926 40.5662 22.5527 40.4882 22.5963C40.3272 22.6812 40.1496 22.7289 39.9682 22.7361C39.7706 22.7463 39.5725 22.7307 39.3788 22.6898C39.2039 22.6549 39.0315 22.6081 38.8629 22.5494C38.53 22.4257 38.2122 22.264 37.9157 22.0675C37.7188 21.9314 37.5322 21.7807 37.3575 21.6166C37.1715 21.4402 37.0072 21.2419 36.8682 21.0259V23.7422C37.1592 23.5723 37.4854 23.4732 37.8209 23.4527C37.8217 23.4538 37.8227 23.4547 37.8237 23.4556C37.9317 23.437 38.0409 23.4267 38.1504 23.4246C38.3181 23.4219 38.4857 23.4349 38.651 23.4634C38.8186 23.4918 38.9844 23.5294 39.1479 23.5761C39.3238 23.622 39.5027 23.6557 39.6832 23.677C39.8634 23.6979 40.0447 23.7084 40.2261 23.7084C40.5331 23.7079 40.8391 23.6726 41.1384 23.6033C41.4319 23.5385 41.7113 23.4199 41.9624 23.2533C42.207 23.0897 42.4113 22.8717 42.5596 22.6161C42.7215 22.3205 42.7989 21.9854 42.7832 21.648C42.7626 21.4656 42.7239 21.2858 42.6675 21.1112" fill="black"/>
<path d="M28.4357 18.67C28.4357 18.5714 28.4409 18.4649 28.4511 18.351C28.4613 18.2379 28.482 18.126 28.5129 18.0169C28.5424 17.9108 28.585 17.809 28.6398 17.7137C28.6944 17.6203 28.7663 17.5384 28.8516 17.4725C28.9415 17.4026 29.0476 17.3572 29.1598 17.3406H26.3336C26.4894 17.3487 26.6388 17.4058 26.7607 17.5039C26.8722 17.5983 26.9616 17.7164 27.0224 17.8498C27.0881 17.9913 27.1323 18.1421 27.1535 18.2969C27.1758 18.4462 27.1875 18.5969 27.1883 18.7479V21.5314L24.5391 17.3406H21.3354C21.4904 17.3433 21.6398 17.3994 21.7588 17.4997C21.8672 17.5966 21.9515 17.7178 22.0052 17.8536C22.0631 17.9981 22.102 18.1497 22.1209 18.3044C22.1404 18.4515 22.1507 18.5996 22.1515 18.7479C22.1515 18.8098 22.1525 18.9022 22.1553 19.0237V21.9711C22.1539 22.1015 22.1506 22.2324 22.1437 22.3633C22.1386 22.4618 22.131 22.5629 22.1209 22.6665C22.1112 22.7682 22.0905 22.8686 22.0591 22.9658C22.0286 23.0612 21.9846 23.1516 21.9285 23.2342C21.8694 23.3192 21.7932 23.3907 21.705 23.444C21.6829 23.4577 21.6597 23.4695 21.6357 23.4792C21.605 23.4918 21.5725 23.5036 21.5395 23.514C21.506 23.5242 21.4763 23.5346 21.4508 23.5449C21.4361 23.552 21.4206 23.5572 21.4047 23.5603H24.1691C24.0925 23.5192 24.0272 23.4817 23.973 23.4478C23.9168 23.4123 23.8628 23.3734 23.8113 23.3314C23.7627 23.2926 23.7176 23.2496 23.6765 23.2028C23.5569 23.0546 23.4774 22.8778 23.4455 22.6894C23.4105 22.5024 23.3925 22.3126 23.3916 22.1222V19.3833L25.9985 23.5603H29.1598C29.0476 23.5436 28.9415 23.4982 28.8516 23.4285C28.7663 23.3626 28.6944 23.2807 28.6398 23.1873C28.585 23.0921 28.5424 22.9903 28.5129 22.8843C28.482 22.7749 28.4613 22.6629 28.4511 22.5497C28.4409 22.4356 28.4357 22.3294 28.4357 22.231V18.67H28.4357Z" fill="black"/>
<path d="M19.9906 21.0872V18.6209C19.9951 18.5096 20.0071 18.3988 20.0264 18.2891C20.0501 18.1498 20.0941 18.0148 20.157 17.8884C20.2199 17.7652 20.3063 17.6556 20.4111 17.5661C20.5321 17.4655 20.6707 17.3889 20.8197 17.3403H17.1382C17.2892 17.3818 17.4288 17.4576 17.5463 17.5618C17.6664 17.6835 17.7619 17.8276 17.8276 17.986C17.9223 18.2281 17.9657 18.4875 17.9549 18.7475V22.012C17.9549 22.1157 17.9523 22.2406 17.947 22.3865C17.9505 22.5925 17.9056 22.7964 17.8159 22.9815C17.7476 23.1168 17.6549 23.238 17.5426 23.339C17.5241 23.355 17.5026 23.37 17.4817 23.3855C16.5791 23.0143 15.639 22.0989 14.9427 21.0009C14.5327 20.3547 14.0698 19.4984 13.6841 18.7508C14.0466 18.2929 14.3934 17.8669 14.6731 17.542C15.2214 17.007 15.9087 16.6401 16.6554 16.4839H13.6502C13.6502 16.4839 13.9259 16.8828 13.5289 17.3676L11.5373 19.7987V17.8031C11.516 17.8123 11.4945 17.8222 11.4732 17.8312C11.3873 17.8664 11.2984 17.9002 11.2083 17.9316C10.9333 18.0278 10.6521 18.105 10.3667 18.1625C10.2691 18.1826 10.1673 18.2014 10.065 18.2178C9.85086 18.2573 9.63469 18.2848 9.4175 18.3V21.9416L9.40458 22.2213C9.39805 22.296 9.38917 22.3711 9.37811 22.4489C9.35322 22.6205 9.30569 22.7879 9.23679 22.9467C9.17133 23.0984 9.0754 23.2347 8.95506 23.347C8.82328 23.4651 8.65886 23.5396 8.48389 23.5606H12.3391C12.1811 23.5287 12.0383 23.4441 11.9338 23.3203C11.8235 23.1881 11.7397 23.0356 11.6871 22.8712C11.6253 22.6836 11.5838 22.4898 11.5633 22.2932C11.5401 22.0829 11.527 21.8769 11.524 21.6751C11.5235 21.6372 11.523 21.6006 11.523 21.5635C11.6763 21.3594 11.9139 21.0435 12.1973 20.6709C12.3494 20.9296 12.5116 21.1985 12.6789 21.4659C13.4759 22.7393 14.1117 23.5629 15.1222 23.5629C16.133 23.5629 20.8039 23.5606 20.8039 23.5606C20.6532 23.4998 20.5149 23.4115 20.3959 23.3002C20.2777 23.1757 20.1826 23.0309 20.1151 22.8726C20.0351 22.6822 19.9928 22.4778 19.9906 22.271V21.0872L19.9906 21.0872Z" fill="black"/>
<path d="M33.4422 20.4738C33.5398 20.5696 33.6092 20.6908 33.643 20.8239C33.6791 20.9698 33.6939 21.1203 33.6872 21.2705C33.6821 21.4338 33.6821 21.5983 33.6872 21.7641C33.6872 21.8472 33.6899 21.9444 33.695 22.0561C33.7009 22.1641 33.6861 22.2723 33.6514 22.3746C33.6134 22.4797 33.543 22.5696 33.4506 22.6312C33.3129 22.711 33.1548 22.7476 32.9964 22.7364C32.7948 22.7459 32.5952 22.6915 32.4258 22.5806C32.2816 22.4777 32.1633 22.3421 32.0804 22.1846C31.9969 22.0249 31.937 21.8536 31.9025 21.6764V21.6802C31.7164 20.8788 31.7101 20.0457 31.8838 19.2415C31.9216 19.0638 31.9866 18.8931 32.0767 18.7356C32.1639 18.5843 32.2831 18.4542 32.4258 18.3547C32.5861 18.2488 32.7728 18.1908 32.9644 18.1877C33.0612 18.1831 33.1582 18.1897 33.2535 18.2073C33.3553 18.2252 33.4515 18.2449 33.5426 18.2655C34.0001 18.3647 34.4366 18.545 34.8319 18.798C35.2766 19.0924 35.6368 19.3903 35.7921 19.8206V17.0004C35.7498 17.1305 35.6808 17.25 35.5897 17.3514C35.4986 17.4527 35.3873 17.5335 35.2632 17.5885C35.1868 17.6146 35.1085 17.6344 35.0289 17.6476C35.0107 17.6499 34.9917 17.6518 34.9723 17.6532C34.9606 17.6542 34.948 17.6542 34.936 17.6546C34.784 17.6537 34.6323 17.641 34.4823 17.6166C34.3185 17.5924 34.1572 17.5532 34.0004 17.4997C33.8396 17.4453 33.687 17.4 33.5426 17.3636C33.3974 17.3272 33.2498 17.3012 33.101 17.2858C32.9487 17.2703 32.7958 17.2626 32.6428 17.2629C32.3318 17.2616 32.0218 17.2966 31.7188 17.3674C31.4299 17.4353 31.1516 17.5427 30.8915 17.6865C30.6354 17.8284 30.4024 18.0093 30.2009 18.2229C30.0387 18.3957 29.8996 18.589 29.7868 18.7981L29.7831 18.8047C29.4324 19.6377 29.3339 20.557 29.5 21.4465C29.5424 21.6254 29.5992 21.8005 29.6696 21.9701C29.7054 22.0561 29.7447 22.1392 29.7873 22.2194C29.9473 22.5275 30.1657 22.8009 30.43 23.0241C30.698 23.2465 31.0063 23.4142 31.3378 23.5178C31.7135 23.6333 32.1058 23.6845 32.4983 23.6692C32.676 23.6631 32.8524 23.6372 33.0244 23.5919C33.2037 23.5449 33.3845 23.493 33.5667 23.436C33.749 23.3788 33.932 23.3249 34.1171 23.2727C34.2939 23.2222 34.4759 23.1921 34.6594 23.1832C34.8356 23.1755 35.0118 23.1965 35.1813 23.2456C35.364 23.3011 35.5315 23.3982 35.6712 23.5294V21.6478C35.6718 21.5098 35.6826 21.3721 35.7037 21.2358C35.7237 21.0954 35.7614 20.9582 35.8158 20.8275C35.8689 20.7013 35.9454 20.5865 36.0411 20.4893C36.1421 20.3878 36.2663 20.313 36.4027 20.2715H32.9644C33.1403 20.2884 33.307 20.3589 33.4422 20.4737" fill="black"/>
</svg>
