<svg width="62" height="16" viewBox="0 0 62 16" fill="none" xmlns="http://www.w3.org/2000/svg">
<g clip-path="url(#clip0)">
<path fill-rule="evenodd" clip-rule="evenodd" d="M18.2833 8.35803H19.3975C19.4506 8.35803 19.486 8.32263 19.486 8.26954V5.6679H21.4846C21.52 5.6679 21.5554 5.6502 21.5731 5.6148L21.9268 4.6414C21.9445 4.5883 21.9091 4.51751 21.8384 4.51751H19.486V2.88928H22.4928C22.5282 2.88928 22.5635 2.87158 22.5812 2.83618L22.935 1.86278C22.9526 1.80968 22.9173 1.73889 22.8465 1.73889H18.2833C18.2302 1.73889 18.1948 1.77429 18.1948 1.82738V8.25184C18.1948 8.32263 18.2479 8.35803 18.2833 8.35803Z" fill="black"/>
<path fill-rule="evenodd" clip-rule="evenodd" d="M25.1461 6.11035L25.9773 3.7034L26.791 6.11035H25.1461ZM25.429 1.80969L23.0944 8.23414C23.0767 8.28724 23.112 8.35803 23.1828 8.35803H24.3324C24.3678 8.35803 24.4032 8.34033 24.4209 8.30493L24.7923 7.18995H27.1447L27.5161 8.30493C27.5338 8.34033 27.5692 8.35803 27.6046 8.35803H28.7542C28.8073 8.35803 28.8603 8.30493 28.8427 8.23414L26.4726 1.80969C26.4549 1.77429 26.4195 1.75659 26.3841 1.75659H25.4998C25.4644 1.75659 25.429 1.77429 25.429 1.80969Z" fill="black"/>
<path fill-rule="evenodd" clip-rule="evenodd" d="M34.0954 5.79179L31.513 1.79199C31.4954 1.77429 31.4777 1.75659 31.4423 1.75659H30.4341C30.3811 1.75659 30.3457 1.79199 30.3457 1.84508V8.26954C30.3457 8.32263 30.3811 8.35803 30.4341 8.35803H31.5484C31.6015 8.35803 31.6369 8.32263 31.6369 8.26954V4.30514L34.2192 8.32263C34.2369 8.34033 34.2545 8.35803 34.2899 8.35803H35.2981C35.3511 8.35803 35.3865 8.32263 35.3865 8.26954V1.84508C35.3865 1.79199 35.3511 1.75659 35.2981 1.75659H34.1838C34.1307 1.75659 34.0954 1.79199 34.0954 1.84508V5.79179Z" fill="black"/>
<path fill-rule="evenodd" clip-rule="evenodd" d="M47.8028 6.03956C47.8028 6.80059 47.3429 7.26074 46.6531 7.26074C45.9633 7.26074 45.5211 6.80059 45.5211 6.03956V1.84508C45.5211 1.79199 45.4858 1.75659 45.4327 1.75659H44.3184C44.2654 1.75659 44.23 1.79199 44.23 1.84508V6.09266C44.23 7.49082 45.3089 8.41112 46.6531 8.41112C48.015 8.41112 49.0762 7.49082 49.0762 6.09266V1.84508C49.0762 1.79199 49.0409 1.75659 48.9878 1.75659H47.8912C47.8381 1.75659 47.8028 1.79199 47.8028 1.84508V6.03956Z" fill="black"/>
<path fill-rule="evenodd" clip-rule="evenodd" d="M55.5498 2.83618L55.9036 1.86278C55.9213 1.80968 55.8859 1.73889 55.8152 1.73889H51.2696C51.2165 1.73889 51.1812 1.77429 51.1812 1.82738V8.25184C51.1812 8.30493 51.2165 8.34033 51.2696 8.34033H55.8152C55.8682 8.34033 55.9213 8.28723 55.9036 8.21644L55.5498 7.24304C55.5322 7.20764 55.4968 7.18994 55.4614 7.18994H52.4546V5.57941H54.8777C54.9308 5.57941 54.9662 5.54401 54.9662 5.49091V4.51751C54.9662 4.46442 54.9308 4.42902 54.8777 4.42902H52.4546V2.87158H55.4614C55.4968 2.90697 55.5322 2.87158 55.5498 2.83618Z" fill="black"/>
<path fill-rule="evenodd" clip-rule="evenodd" d="M61.4574 7.20764H58.7335V1.84508C58.7335 1.79199 58.6982 1.75659 58.6451 1.75659H57.5308C57.4778 1.75659 57.4424 1.79199 57.4424 1.84508V8.26954C57.4424 8.32263 57.4778 8.35803 57.5308 8.35803H61.8111C61.8642 8.35803 61.9172 8.30493 61.8995 8.23414L61.5458 7.26074C61.5281 7.22534 61.4927 7.20764 61.4574 7.20764Z" fill="black"/>
<path fill-rule="evenodd" clip-rule="evenodd" d="M41.7008 2.37603C41.2586 1.93357 40.6396 1.73889 39.9498 1.73889H37.3321C37.279 1.73889 37.2437 1.79199 37.2437 1.84508L37.4382 2.81848C37.4382 2.85388 37.4736 2.88928 37.5266 2.88928H38.8532H39.1892H39.826C40.2681 2.88928 40.5688 3.03086 40.7988 3.29633C41.0464 3.5972 41.0817 4.00426 41.0817 5.01306C41.0817 6.02186 41.0464 6.48201 40.7988 6.78288C40.5688 7.04836 40.2858 7.18994 39.826 7.18994H38.8532V3.77419C38.8532 3.72109 38.8178 3.6857 38.7647 3.6857H37.6505C37.5974 3.6857 37.562 3.72109 37.562 3.77419V8.26954C37.562 8.32263 37.5974 8.35803 37.6505 8.35803H39.9498C40.6396 8.35803 41.2586 8.16335 41.7008 7.72089C42.4437 6.97756 42.3729 6.02186 42.3729 5.01306C42.3729 4.03966 42.4437 3.11935 41.7008 2.37603Z" fill="black"/>
<path fill-rule="evenodd" clip-rule="evenodd" d="M18.2478 11.1012C18.2478 10.588 18.5308 10.3048 19.0437 10.3048H20.1049C20.6002 10.3048 20.8832 10.588 20.8832 11.1012V11.4729H20.0695V11.1189C20.0695 11.0304 20.0342 10.9773 19.928 10.9773H19.2029C19.1144 10.9773 19.0614 11.0127 19.0614 11.1189V11.5083C19.0614 11.6145 19.0968 11.6322 19.1852 11.6676L20.3879 11.9684C20.7417 12.0569 20.9185 12.2693 20.9185 12.6056V13.2958C20.9185 13.8091 20.6355 14.0922 20.1226 14.0922H18.9906C18.4954 14.0922 18.2124 13.8091 18.2124 13.2958V12.9595H19.026V13.2604C19.026 13.3489 19.0614 13.402 19.1675 13.402H19.9634C20.0519 13.402 20.1049 13.3666 20.1049 13.2604V12.7826C20.1049 12.6941 20.0695 12.6587 19.9811 12.6233L18.743 12.3047C18.4246 12.2162 18.2655 12.0038 18.2655 11.6322V11.1012H18.2478Z" fill="#1493FF"/>
<path fill-rule="evenodd" clip-rule="evenodd" d="M23.6423 11.0304V12.0392H24.509C24.5974 12.0392 24.6505 12.0038 24.6505 11.8977V11.1543C24.6505 11.0658 24.6151 11.0127 24.509 11.0127H23.6423V11.0304ZM23.6423 12.7472V14.0745H22.811V10.3225H24.6682C25.1811 10.3225 25.4641 10.6057 25.4641 11.1189V11.9684C25.4641 12.4817 25.1811 12.7649 24.6682 12.7649H23.6423V12.7472Z" fill="#1493FF"/>
<path fill-rule="evenodd" clip-rule="evenodd" d="M28.1349 13.2604C28.1349 13.3489 28.1703 13.402 28.2764 13.402H29.0723C29.1607 13.402 29.2138 13.3666 29.2138 13.2604V11.1366C29.2138 11.0481 29.1784 10.995 29.0723 10.995H28.2764C28.188 10.995 28.1349 11.0304 28.1349 11.1366V13.2604ZM28.1172 14.1099C27.6043 14.1099 27.3213 13.8268 27.3213 13.3135V11.1012C27.3213 10.588 27.6043 10.3048 28.1172 10.3048H29.2492C29.7621 10.3048 30.0451 10.588 30.0451 11.1012V13.3135C30.0451 13.8268 29.7621 14.1099 29.2492 14.1099H28.1172Z" fill="#1493FF"/>
<path fill-rule="evenodd" clip-rule="evenodd" d="M32.7869 11.0304V11.9684H33.6535C33.742 11.9684 33.795 11.933 33.795 11.8269V11.1543C33.795 11.0658 33.7596 11.0127 33.6535 11.0127H32.7869V11.0304ZM33.742 14.0922L33.3175 12.6764H32.7869V14.0922H31.9556V10.3225H33.8304C34.3433 10.3225 34.6263 10.6057 34.6263 11.1189V11.88C34.6263 12.2693 34.4671 12.5348 34.1488 12.6233L34.6263 14.0745H33.742V14.0922Z" fill="#1493FF"/>
<path fill-rule="evenodd" clip-rule="evenodd" d="M39.0126 11.0481H38.1282V14.0922H37.297V11.0481H36.4126V10.3225H39.0126V11.0481Z" fill="#1493FF"/>
<path fill-rule="evenodd" clip-rule="evenodd" d="M40.8166 11.1012C40.8166 10.588 41.0996 10.3048 41.6125 10.3048H42.6738C43.169 10.3048 43.452 10.588 43.452 11.1012V11.4729H42.6384V11.1189C42.6384 11.0304 42.603 10.9773 42.4969 10.9773H41.7717C41.6833 10.9773 41.6302 11.0127 41.6302 11.1189V11.5083C41.6302 11.6145 41.6656 11.6322 41.754 11.6676L42.9568 11.9684C43.3105 12.0569 43.4874 12.2693 43.4874 12.6056V13.2958C43.4874 13.8091 43.2044 14.0922 42.6915 14.0922H41.5595C41.0642 14.0922 40.7812 13.8091 40.7812 13.2958V12.9595H41.5949V13.2604C41.5949 13.3489 41.6302 13.402 41.7364 13.402H42.5323C42.6207 13.402 42.6738 13.3666 42.6738 13.2604V12.7826C42.6738 12.6941 42.6384 12.6587 42.55 12.6233L41.3119 12.3047C40.9935 12.2162 40.8343 12.0038 40.8343 11.6322V11.1012H40.8166Z" fill="#1493FF"/>
<path fill-rule="evenodd" clip-rule="evenodd" d="M46.2112 12.4994V13.3843H47.1486C47.237 13.3843 47.2901 13.3489 47.2901 13.2427V12.6233C47.2901 12.5348 47.2547 12.4817 47.1486 12.4817H46.2112V12.4994ZM46.2112 11.0127V11.7915H47.0602C47.1486 11.7915 47.2017 11.7561 47.2017 11.6499V11.1366C47.2017 11.0481 47.1663 10.995 47.0602 10.995H46.2112V11.0127ZM45.3799 14.0922V10.3225H47.2193C47.7323 10.3225 48.0153 10.6057 48.0153 11.1189V11.5437C48.0153 11.8446 47.8738 12.0392 47.5908 12.1454C47.9445 12.1985 48.1037 12.4109 48.1037 12.7649V13.3135C48.1037 13.8268 47.8207 14.1099 47.3078 14.1099H45.3799V14.0922Z" fill="#1493FF"/>
<path fill-rule="evenodd" clip-rule="evenodd" d="M50.7921 13.2604C50.7921 13.3489 50.8275 13.402 50.9336 13.402H51.7295C51.818 13.402 51.871 13.3666 51.871 13.2604V11.1366C51.871 11.0481 51.8357 10.995 51.7295 10.995H50.9336C50.8452 10.995 50.7921 11.0304 50.7921 11.1366V13.2604ZM50.7744 14.1099C50.2615 14.1099 49.9785 13.8268 49.9785 13.3135V11.1012C49.9785 10.588 50.2615 10.3048 50.7744 10.3048H51.9064C52.4193 10.3048 52.7023 10.588 52.7023 11.1012V13.3135C52.7023 13.8268 52.4193 14.1099 51.9064 14.1099H50.7744Z" fill="#1493FF"/>
<path fill-rule="evenodd" clip-rule="evenodd" d="M55.426 13.2604C55.426 13.3489 55.4614 13.402 55.5675 13.402H56.3634C56.4519 13.402 56.5049 13.3666 56.5049 13.2604V11.1366C56.5049 11.0481 56.4696 10.995 56.3634 10.995H55.5675C55.4791 10.995 55.426 11.0304 55.426 11.1366V13.2604ZM55.3906 14.1099C54.8777 14.1099 54.5947 13.8268 54.5947 13.3135V11.1012C54.5947 10.588 54.8777 10.3048 55.3906 10.3048H56.5226C57.0355 10.3048 57.3185 10.588 57.3185 11.1012V13.3135C57.3185 13.8268 57.0355 14.1099 56.5226 14.1099H55.3906Z" fill="#1493FF"/>
<mask id="mask0" mask-type="alpha" maskUnits="userSpaceOnUse" x="59" y="10" width="3" height="5">
<path d="M59.2466 10.3225H61.9527V14.0922H59.2466V10.3225Z" fill="white"/>
</mask>
<g mask="url(#mask0)">
<path fill-rule="evenodd" clip-rule="evenodd" d="M60.361 12.4994H60.0603V14.0922H59.229V10.3225H60.0603V11.8092H60.4317L61.0685 11.1897C61.1215 11.1366 61.1569 11.0481 61.1569 10.9419V10.3402H61.9351V11.0835C61.9351 11.2428 61.8821 11.3844 61.7759 11.4906L61.0861 12.1631L61.829 12.9949C61.9174 13.0834 61.9528 13.225 61.9528 13.3666V14.0922H61.1215V13.5259C61.1215 13.4374 61.0861 13.3489 61.0331 13.2781L60.361 12.4994Z" fill="#1493FF"/>
</g>
<mask id="mask1" mask-type="alpha" maskUnits="userSpaceOnUse" x="0" y="0" width="15" height="16">
<path d="M0.0478516 0.553101H14.9227V15.3665H0.0478516V0.553101Z" fill="white"/>
</mask>
<g mask="url(#mask1)">
<path fill-rule="evenodd" clip-rule="evenodd" d="M4.11588 8.26952C4.3635 8.72967 4.6288 9.15443 4.92948 9.57919C4.92948 9.57919 4.94717 9.61458 4.92948 9.63228C5.03561 11.2782 5.38935 12.8534 5.99071 14.3046C6.0084 14.34 5.95533 14.3754 5.91996 14.3577C2.36486 11.6499 0.0478516 7.24302 0.0478516 2.57069C0.0478516 2.5176 0.0655386 2.4822 0.1186 2.4468C2.29411 1.22563 4.71724 0.517698 7.47642 0.5C7.5118 0.5 7.52948 0.535396 7.5118 0.570793C6.92812 1.42031 6.46826 2.23443 6.07914 3.15473C6.06146 3.19013 6.02608 3.22553 5.99071 3.22553C4.87642 3.36711 3.79751 3.65028 2.78935 4.07504C2.8601 4.67678 2.98391 5.26082 3.14309 5.82716C3.85057 5.5086 4.57574 5.26082 5.35397 5.10154C5.38935 5.10154 5.40703 5.11924 5.40703 5.15463C5.1771 6.02184 5.01792 6.92445 4.96486 7.84476C4.96486 7.89786 4.92948 7.93325 4.87642 7.95095C4.81446 7.97575 4.75346 7.99959 4.6932 8.02314C4.49545 8.10041 4.30566 8.17457 4.11588 8.26952ZM14.9227 2.57069C14.9227 7.98634 11.9336 12.7826 7.54719 15.3488C7.5236 15.3606 7.50002 15.3567 7.47644 15.3527C7.46465 15.3508 7.45286 15.3488 7.44106 15.3488C6.71589 14.0214 6.20297 12.5525 5.95535 10.995C5.93766 10.9596 5.99072 10.9242 6.0261 10.9596C6.46828 11.4375 6.96351 11.88 7.47644 12.2693C10.0234 10.3225 11.7744 7.42 12.1989 4.09274C10.7309 3.491 9.13902 3.15473 7.47644 3.15473H7.10501C7.06964 3.15473 7.05195 3.11933 7.06964 3.08394C7.49413 2.19903 7.98936 1.36721 8.57304 0.606188C8.59072 0.570791 8.64379 0.553093 8.67916 0.553093C10.9254 0.730075 13.0479 1.42031 14.8696 2.4645C14.905 2.4822 14.9227 2.53529 14.9227 2.57069Z" fill="#1493FF"/>
</g>
</g>
<defs>
<clipPath id="clip0">
<rect width="61.9048" height="14.8665" fill="white" transform="translate(0.0478516 0.5)"/>
</clipPath>
</defs>
</svg>
