<svg width="60" height="13" viewBox="0 0 60 13" fill="none" xmlns="http://www.w3.org/2000/svg">
<path fill-rule="evenodd" clip-rule="evenodd" d="M35.5448 1.11175C37.3347 1.11175 38.7173 1.3205 39.4107 2.6651C39.736 3.29581 39.8473 4.21809 39.6176 4.99218C39.3724 5.81864 38.9645 6.11235 38.4195 6.50901L38.7436 6.724C40.5911 7.87213 40.7952 12.3184 36.1326 12.3259L31.4265 12.3257C31.3478 11.7055 31.4162 3.47784 31.4069 1.75938C31.4062 1.65661 31.3988 1.49684 31.4058 1.40048L31.4639 1.1171L35.5444 1.11175H35.5448ZM47.4905 5.4918L47.4944 7.87534L43.8333 7.96974C43.8261 7.98452 43.8199 8.00465 43.8166 8.01658C43.7038 8.42892 43.7626 9.24487 43.7996 9.62924C44.0778 9.73219 48.0376 9.70601 48.233 9.61482L48.31 9.76853L48.3015 12.312L40.6855 12.3225L40.6779 1.12903L48.2962 1.10712L48.313 3.63298C48.2404 3.72186 48.3846 3.71313 48.0751 3.75232L43.7178 3.75624L43.7254 5.43676C44.4219 5.4852 47.1006 5.31208 47.4905 5.49162V5.4918ZM52.0816 12.3179C51.9024 12.037 52.059 4.75885 52.0179 3.69461L49.0876 3.69229C49.02 3.41978 49.1719 1.52819 49.2203 1.11247L57.8897 1.12476L57.895 3.66985C57.3993 3.73094 55.1249 3.6011 54.9215 3.73789L54.9105 12.3174L52.0818 12.3181L52.0816 12.3179ZM30.5595 12.6243H59.7144V0.75H30.2893C30.2213 0.984578 28.8708 3.29118 28.6221 3.73504L27.3662 5.9638C27.1816 6.28922 27.0057 6.39484 27.1746 6.70031C27.4598 7.21595 30.4438 12.2874 30.5597 12.6243H30.5595Z" fill="#FDDD06"/>
<path fill-rule="evenodd" clip-rule="evenodd" d="M9.65906 7.34028C9.46306 5.04597 10.4942 3.04413 12.2729 2.01248C12.8325 1.68796 13.5089 1.42631 14.2841 1.32816C17.3779 0.936665 19.8676 3.32555 20.1841 6.04271C20.5577 9.25182 18.2138 11.7529 15.5125 12.0463C12.5467 12.3683 9.89829 10.1376 9.65924 7.34028H9.65906ZM8.9211 5.68469L8.92604 8.69984L5.84982 8.70019L5.85687 12.3247L2.72878 12.3313L2.71732 1.10926L9.40114 1.1114L9.5548 3.57189L9.65289 4.19084H5.88687L5.87857 5.63197C6.19454 5.63803 8.66723 5.56393 8.92128 5.68469H8.9211ZM18.8126 1.14275L22.3104 1.13633C22.679 1.66676 23.355 3.21316 23.6041 3.49476C23.8338 3.28174 24.1706 2.52492 24.3222 2.24528L24.8158 1.32229C24.9239 1.14025 24.8957 1.14007 25.133 1.13687L28.3304 1.13633L25.5783 6.00922C25.4008 6.33909 25.2476 6.39769 25.4384 6.73166L28.6315 12.2951L25.1332 12.302L23.9795 10.2304C23.9067 10.0954 23.8569 10.0029 23.7915 9.88306C23.6796 9.67805 23.6735 9.61695 23.5205 9.51774C23.358 9.95145 22.6615 11.1445 22.3565 11.7214C22.0373 12.3248 22.1617 12.3083 21.8399 12.311L18.631 12.3035L21.7736 6.73469C21.9516 6.39253 21.7519 6.31861 21.5767 6.00406L18.8126 1.14292V1.14275ZM0.904962 12.6243H30.5565C30.4407 12.2874 27.4568 7.21595 27.1713 6.70031C27.0025 6.39484 27.1784 6.28922 27.3629 5.9638L28.6188 3.73504C28.8676 3.29135 30.2181 0.984578 30.286 0.75H0.904785V12.6243H0.904962Z" fill="#1A2E51"/>
<path fill-rule="evenodd" clip-rule="evenodd" d="M14.7043 3.56017C15.3273 3.36478 15.7981 3.89663 15.8558 4.43009L15.8666 8.46868C15.868 9.20091 15.8041 9.67399 15.1846 9.84801C14.5385 10.0295 14.0456 9.52295 14.0267 8.94389L14.0279 4.90601C14.0249 4.1907 14.1264 3.74149 14.7042 3.56017H14.7043ZM9.65769 7.34067C9.89674 10.1382 12.5451 12.3687 15.5109 12.0467C18.2123 11.7533 20.5562 9.25221 20.1825 6.0431C19.8662 3.32595 17.3766 0.93706 14.2825 1.32856C13.5073 1.4267 12.8311 1.68835 12.2713 2.01288C10.4929 3.04435 9.46151 5.04637 9.65751 7.34067H9.65769Z" fill="#FEFDFE"/>
<path fill-rule="evenodd" clip-rule="evenodd" d="M36.1857 10.0506L34.3058 10.1412L34.295 7.62178C34.5647 7.61447 35.9408 7.54626 36.185 7.72063C37.3425 7.73096 37.3576 10.0555 36.1855 10.0506H36.1857ZM35.8512 5.56205C35.54 5.69581 34.7165 5.62279 34.3105 5.60871L34.2975 3.31993C34.647 3.30871 35.7448 3.23212 35.935 3.38868C37.1899 3.31815 37.1987 5.65503 35.8512 5.56205ZM31.4605 1.11771L31.4024 1.40109C31.3952 1.49745 31.4028 1.65722 31.4035 1.75999C31.4128 3.47845 31.3444 11.7061 31.4231 12.3263L36.1292 12.3265C40.7918 12.319 40.5875 7.87256 38.7402 6.72461L38.4162 6.50962C38.9611 6.11296 39.3688 5.81925 39.6142 4.99279C39.8439 4.21852 39.7326 3.29642 39.4073 2.66571C38.7138 1.32112 37.3314 1.11237 35.5414 1.11237L31.4608 1.11771H31.4605Z" fill="#1A2E51"/>
<path fill-rule="evenodd" clip-rule="evenodd" d="M48.3059 9.76799L43.6638 9.75908L43.6654 7.8764L47.4903 7.87479L47.4864 5.49125L43.6553 5.49927C43.61 5.14499 43.5869 3.98813 43.6752 3.67536C44.5266 3.6392 47.8211 3.75195 48.3089 3.63279L48.2921 1.10693L40.6738 1.12884L40.6814 12.3223L48.2974 12.3118L48.3059 9.76834V9.76799Z" fill="#1A2E51"/>
<path fill-rule="evenodd" clip-rule="evenodd" d="M18.8173 1.14252L21.5814 6.00365C21.7566 6.31802 21.9565 6.39212 21.7783 6.73428L18.6357 12.3031L21.8446 12.3105C22.1664 12.3079 22.042 12.3244 22.3612 11.721C22.6662 11.1441 23.3627 9.95104 23.5252 9.51733C23.6782 9.61654 23.6843 9.67764 23.7962 9.88265C23.8615 10.0025 23.9112 10.0951 23.9842 10.23L25.1379 12.3016L28.6362 12.2947L25.4431 6.73125C25.2525 6.39728 25.4055 6.33868 25.583 6.00881L28.3351 1.13593L25.1377 1.13646C24.9004 1.13967 24.9286 1.13984 24.8205 1.32188L24.3269 2.24487C24.1751 2.52451 23.8383 3.28133 23.6088 3.49435C23.3595 3.21275 22.6837 1.66635 22.3151 1.13593L18.8173 1.14234V1.14252Z" fill="#FEFDFE"/>
<path fill-rule="evenodd" clip-rule="evenodd" d="M8.91765 5.68455C8.3584 5.68402 6.2359 5.7704 5.86683 5.6516C5.77933 5.4571 5.77439 4.36044 5.8753 4.14189L9.58998 4.15312L9.55135 3.57139L9.39769 1.1109L2.71387 1.10876L2.72533 12.3308L5.85342 12.3242L5.84637 8.69969L8.92259 8.69934L8.91765 5.6842V5.68455Z" fill="#FEFDFE"/>
<path fill-rule="evenodd" clip-rule="evenodd" d="M52.0837 12.318C51.9959 11.1234 52.0883 5.32747 52.1035 3.73191L52.121 12.2412C52.4999 12.2854 53.0669 12.2528 53.4829 12.2528C53.8986 12.2528 54.4771 12.3459 54.8361 12.1799L54.8661 4.19234C54.8572 3.90967 54.7577 3.84911 54.9236 3.73779C55.127 3.601 57.4014 3.73084 57.8971 3.66975L57.8918 1.12466L49.2224 1.11237C49.1741 1.52809 49.0223 3.41967 49.0897 3.69219L52.0201 3.69451C52.0612 4.75875 51.9047 12.0369 52.0837 12.3178V12.318Z" fill="#1A2E51"/>
<path fill-rule="evenodd" clip-rule="evenodd" d="M14.7048 3.55989C14.127 3.74121 14.0256 4.19042 14.0286 4.90573L14.0273 8.94361C14.0464 9.52285 14.5393 10.0292 15.1852 9.84773C15.8048 9.67371 15.8686 9.20063 15.8672 8.4684L15.8565 4.42981C15.7986 3.89635 15.3279 3.3645 14.705 3.55989H14.7048Z" fill="#1A2E51"/>
<path fill-rule="evenodd" clip-rule="evenodd" d="M36.1886 10.0503C37.3608 10.0551 37.3456 7.73067 36.1881 7.72034L34.4123 7.72123C34.3322 8.05021 34.3444 9.72182 34.4102 10.0642C34.5716 10.0278 35.9865 10.0298 36.1886 10.0503Z" fill="#FDDD06"/>
<path fill-rule="evenodd" clip-rule="evenodd" d="M35.8475 5.56122C37.195 5.6542 37.1862 3.31732 35.9313 3.38786L34.4198 3.42312C34.327 3.95676 34.3638 4.62006 34.3629 5.20624C34.3621 5.79366 34.5381 5.48998 35.8475 5.56122Z" fill="#FDDD06"/>
<path fill-rule="evenodd" clip-rule="evenodd" d="M52.082 12.3184L54.9107 12.3177L54.9217 3.73824C54.7558 3.84956 54.8553 3.91012 54.8641 4.19279L54.8342 12.1804C54.4753 12.3462 53.8967 12.2531 53.481 12.2532C53.065 12.2532 52.4982 12.2858 52.1191 12.2417L52.1016 3.73236C52.0864 5.32792 51.994 11.1238 52.0818 12.3184H52.082Z" fill="#06151C"/>
<path fill-rule="evenodd" clip-rule="evenodd" d="M47.4879 5.49133C47.0982 5.31178 44.4195 5.48491 43.7228 5.43647L43.7152 3.75595L48.0726 3.75203C48.3822 3.71284 48.2381 3.72175 48.3104 3.63269C47.8226 3.75185 44.528 3.63928 43.6768 3.67526C43.5885 3.98803 43.6115 5.14489 43.6568 5.49916L47.4879 5.49115V5.49133Z" fill="#A5A638"/>
<path fill-rule="evenodd" clip-rule="evenodd" d="M48.3023 9.76935L48.2254 9.61564C48.0301 9.70683 44.0702 9.73284 43.7919 9.63007C43.7551 9.24569 43.6961 8.42957 43.8089 8.01741C43.8122 8.00547 43.8184 7.98552 43.8256 7.97056L47.4867 7.87616L43.6617 7.87776L43.6602 9.76045L48.3023 9.76935Z" fill="#EEE932"/>
<path fill-rule="evenodd" clip-rule="evenodd" d="M8.91772 5.68392C8.66367 5.56315 6.19098 5.63725 5.87501 5.63119L5.8833 4.19006H9.64933L9.55124 3.57111L9.58987 4.15283L5.87519 4.14161C5.77428 4.35998 5.77922 5.45664 5.86672 5.65132C6.23579 5.77012 8.35847 5.68356 8.91754 5.68427L8.91772 5.68392Z" fill="#ABB5C3"/>
<path fill-rule="evenodd" clip-rule="evenodd" d="M36.1898 10.0505C35.9877 10.0301 34.5728 10.0279 34.4113 10.0644C34.3454 9.72209 34.3334 8.05048 34.4135 7.7215L36.1893 7.72061C35.9451 7.54623 34.5691 7.61445 34.2993 7.62175L34.3101 10.1412L36.19 10.0505H36.1898Z" fill="#EEE932"/>
<path fill-rule="evenodd" clip-rule="evenodd" d="M35.853 5.56084C34.5437 5.4896 34.3676 5.79311 34.3685 5.20586C34.3694 4.61968 34.3325 3.95638 34.4253 3.42275L35.9368 3.38748C35.7467 3.23109 34.6486 3.30768 34.2993 3.31873L34.3124 5.60751C34.7183 5.62158 35.5418 5.69461 35.853 5.56084Z" fill="#EEE932"/>
</svg>
