<svg width="60" height="14" viewBox="0 0 60 14" fill="none" xmlns="http://www.w3.org/2000/svg">
<path fill-rule="evenodd" clip-rule="evenodd" d="M46.1523 12.9369L51.3629 12.9317L51.7048 10.8757L48.7956 10.8693L49.3851 7.87384L51.8763 7.87891L52.2949 5.71501L49.8225 5.71345L50.3466 2.93144L55.1623 2.92936L53.2745 12.924L55.573 12.9317L57.4607 2.93703L59.3723 2.92936L59.7144 0.873367L48.4876 0.867126L46.1523 12.9369Z" fill="black"/>
<path fill-rule="evenodd" clip-rule="evenodd" d="M18.4019 12.9316H20.661L21.7905 7.05399L22.9098 12.9337L24.6657 12.9316L25.2217 9.98396C25.4885 8.6566 26.9262 1.63 26.9248 0.867047H24.7684C24.4564 1.54652 23.915 6.20224 23.6388 6.64157L22.5173 0.865356L20.661 0.867047C20.6465 1.55641 18.4025 12.1115 18.4019 12.9316Z" fill="#EB1A41"/>
<path fill-rule="evenodd" clip-rule="evenodd" d="M41.3182 7.66379C43.2822 7.73413 44.376 7.10288 43.6226 9.79817C43.3098 10.9172 42.572 10.8693 41.7113 10.8693C41.7116 10.3912 41.9144 9.48093 42.0138 9.00181C42.2301 7.95906 41.8165 8.19855 41.3182 7.66379ZM42.6355 5.61027L43.191 2.93747C44.4037 2.92928 44.8636 2.95438 44.564 4.35117C44.282 5.66605 43.9134 5.61027 42.6355 5.61027ZM39.002 12.9238L42.8408 12.9315C43.8638 12.9315 44.8456 12.4101 45.3072 11.4898C45.7926 10.5221 46.1268 9.16095 46.1268 8.08505C46.1268 7.4044 45.8439 7.14709 45.5106 6.64145C45.8609 6.14803 46.177 6.26218 46.54 5.40653C47.1393 3.99336 47.4211 1.36099 45.1458 0.924002C44.2279 0.747696 42.334 0.866923 41.3006 0.866923L39.0021 12.9238H39.002Z" fill="black"/>
<path fill-rule="evenodd" clip-rule="evenodd" d="M11.136 10.9461C10.3714 10.2708 11.1283 7.29854 11.3221 6.33952C11.4637 5.63911 11.6421 4.77019 11.8474 4.08291C12.1056 3.2192 12.3546 2.73618 13.3422 2.85293C14.2569 3.26223 12.9082 8.80377 12.6129 9.69816C12.3313 10.551 12.1417 11.0651 11.136 10.9461ZM12.3418 0.867158C11.7989 1.00784 11.5661 0.851035 10.7737 1.66404C10.3148 2.13471 10.0546 2.6436 9.86423 3.22557C9.43786 4.52888 9.18668 5.84051 8.91063 7.21754C8.68418 8.34701 8.26377 10.5005 8.744 11.5951C9.32703 12.9239 10.7497 13.3027 12.1829 12.9783C14.7173 12.4045 15.1011 9.04248 15.5694 6.58278C15.9326 4.67502 16.6969 0.762493 13.4743 0.761192C12.5862 0.760802 12.9882 0.699694 12.3419 0.867158H12.3418Z" fill="#EB1A41"/>
<path fill-rule="evenodd" clip-rule="evenodd" d="M34.7282 9.42605C34.0896 9.42605 33.1092 9.30175 32.5366 9.49379C31.9904 11.1368 32.7352 13.0368 34.9307 13.038C36.7724 13.0389 38.1003 12.7003 38.6517 10.4788C40.1051 4.6242 35.8662 6.68994 35.85 4.47844C35.8451 3.80482 36.2762 2.17451 37.2601 2.96503C37.5101 3.26693 37.398 3.85708 37.398 4.27015H39.6571C39.6571 2.22691 40.0093 0.755746 36.6763 0.760816C34.5933 0.764067 33.8289 2.54402 33.5862 4.36091C33.4542 5.3497 33.3796 6.15023 34.187 6.87599C35.43 7.99337 36.9539 7.5257 36.6208 9.36715C36.5405 9.8113 36.5209 10.2111 36.2329 10.6278C35.9659 11.0137 35.3725 11.0722 35.0292 10.8771C34.5728 10.6175 34.7281 9.88164 34.7281 9.42618L34.7282 9.42605Z" fill="#EB1A41"/>
<path fill-rule="evenodd" clip-rule="evenodd" d="M4.43562 6.5386L5.0922 2.93747C6.7306 2.92954 6.85476 3.18334 6.48498 4.88723C6.1912 6.24138 5.87773 6.53873 4.43562 6.53873V6.5386ZM0.904785 12.9242L3.20339 12.9319C3.20391 12.2567 3.51154 11.1922 3.62561 10.4687C3.82708 9.19033 4.04758 9.39875 3.00671 8.62748C5.72754 8.34534 7.8037 9.49978 8.77491 4.70911C9.02661 3.46769 9.06066 1.86807 7.8261 1.17468C6.89853 0.653822 4.40688 0.867182 3.20339 0.867182L0.904785 12.9241L0.904785 12.9242Z" fill="#EB1A41"/>
<path fill-rule="evenodd" clip-rule="evenodd" d="M27.4371 2.92936H29.1829C29.1824 3.54421 28.891 4.75521 28.7639 5.39594L27.3345 12.9317H29.5936C29.6122 12.0493 31.4411 3.85366 31.442 2.92936H33.3931L33.7323 0.872587L27.7453 0.867126C27.7308 1.56117 27.4359 2.15405 27.4373 2.92936H27.4371Z" fill="#EB1A41"/>
<path fill-rule="evenodd" clip-rule="evenodd" d="M15.1445 12.9379L17.3744 12.9322L19.7341 0.867126L17.4769 0.867647L15.1445 12.9379Z" fill="#EB1A41"/>
</svg>
