<svg width="67" height="16" viewBox="0 0 67 16" fill="none" xmlns="http://www.w3.org/2000/svg">
<path fill-rule="evenodd" clip-rule="evenodd" d="M5.61933 7.79806C7.41628 7.32487 7.39015 11.9873 6.07028 12.3007C4.88982 12.5809 4.69578 11.2754 4.67812 10.3003C4.65928 9.26505 4.63102 8.05836 5.61933 7.79782V7.79806ZM25.5257 2.80563L25.5169 4.84655L23.9063 4.85082L23.9025 7.90095L25.5071 7.91138C25.5071 9.98076 25.2045 13.3225 26.3319 14.6892C27.7345 16.389 30.0966 15.7361 32.2286 15.2622L32.2279 12.1791C29.6002 12.7135 30.1446 11.3697 30.1189 7.90664L32.2227 7.89431L32.2152 4.85058L30.1192 4.81763L30.1055 1.76892C30.114 0.674849 30.1973 0.939655 29.9282 0.810453L25.5278 2.36586L25.5257 2.80586V2.80563ZM17.1734 9.14983C17.1621 8.16457 17.403 7.05959 18.4038 7.05177C19.4043 7.04395 19.5843 8.23095 19.5558 9.16026L19.2513 9.17306L17.4715 9.1778L17.1734 9.15007V9.14983ZM23.5634 11.4193C23.5712 8.21625 22.9318 5.55634 20.2339 4.78657C18.9562 4.4222 17.0503 4.55117 15.822 4.96959C11.4154 6.47142 12.0416 12.8102 14.6088 14.716C16.563 16.1666 20.4438 16.0623 22.8833 15.1797L22.8895 12.4278C21.6605 12.8668 21.0501 13.1305 19.5051 13.0781C18.2354 13.0352 17.1955 12.7289 17.1711 11.4335L23.5634 11.4195V11.4193ZM4.51352 13.7127C4.76383 14.0233 4.98448 14.5396 5.23315 14.8585C6.07405 15.9371 8.12602 16.0346 9.40868 15.4058C11.9297 14.1702 12.2253 9.71524 11.3728 7.31302C10.195 3.99263 6.84454 4.19556 5.65772 5.23061L4.78338 6.11392L4.78314 0.0625H0.174561L0.199521 15.568L4.45959 15.531L4.51328 13.7127H4.51352Z" fill="#027B5B"/>
<path fill-rule="evenodd" clip-rule="evenodd" d="M48.6042 11.4088C47.9955 8.57702 51.0833 7.98814 51.5969 10.1502C52.2369 12.8433 49.0886 13.6631 48.6042 11.4088ZM61.1068 4.50417L65.9299 4.48924L65.9273 1.17738L56.8858 1.19327L56.8549 9.32948C58.536 8.7259 61.8415 8.53221 61.7068 10.8109C61.561 13.2774 57.6709 12.0133 56.7217 11.941C56.72 12.6105 56.6126 14.6962 56.7782 15.1533C57.6817 15.7851 61.0578 15.8816 62.2955 15.6791C64.1252 15.3797 65.4495 14.5459 66.0634 13.2416C66.8028 11.6708 66.6253 9.53004 65.7179 8.29989C64.6248 6.81773 63.5105 6.64609 61.0922 6.71081L61.1068 4.50441V4.50417ZM33.3246 1.50359L33.3413 4.64381C33.7185 4.62508 36.9985 3.43333 38.0226 4.7071C38.5885 5.41096 38.3163 6.29167 37.5832 6.57948C36.8667 6.86088 35.6313 6.78027 34.818 6.75064L34.8161 9.90318C35.7613 9.81428 36.6665 9.6232 37.5682 9.93851C38.2958 10.1931 38.8567 11.0717 38.2975 11.9059C37.5168 13.0704 34.461 12.1653 33.2217 11.8941L33.2332 15.2259C35.9996 15.9676 39.7285 16.2002 41.8433 14.622C42.7193 13.9684 43.5357 12.7264 43.2574 10.9615C43.0264 9.49637 42.0378 8.64411 40.7476 8.25461C41.1081 7.95211 41.5172 8.03698 42.246 7.26508C42.6755 6.81014 42.956 6.3481 43.0874 5.54396C43.8171 1.08137 37.4836 0.111996 33.3248 1.50335L33.3246 1.50359ZM48.542 6.93555C48.8187 2.60525 53.7327 4.58312 54.7203 4.58098L54.7304 1.34713C53.1791 0.875121 50.1447 0.728375 48.5404 1.23286C44.5777 2.47889 43.406 6.78644 44.0733 10.3951C45.4271 17.717 54.6786 17.0487 55.763 11.9225C56.4575 8.64008 54.3798 6.08613 51.2731 6.14185C49.8967 6.1665 49.547 6.45999 48.542 6.93532V6.93555Z" fill="#F8DB1C"/>
</svg>
