<svg width="67" height="16" viewBox="0 0 67 16" fill="none" xmlns="http://www.w3.org/2000/svg">
<path d="M17.3696 0.765625H20.9679C21.8607 0.765625 22.4238 0.970939 22.7946 1.34051C23.0281 1.57319 23.1929 1.9017 23.1929 2.3397V2.35339C23.1929 3.10621 22.7396 3.57159 22.0529 3.81796C22.877 4.05065 23.4126 4.48866 23.4126 5.37835V5.39204C23.4126 6.41861 22.5748 7.17143 20.9405 7.17143H17.3834V0.765625H17.3696ZM21.0778 2.81877C21.0778 2.53133 20.8443 2.38076 20.3911 2.38076H19.4709V3.27046H20.4049C20.8581 3.27046 21.0778 3.1199 21.0778 2.83246V2.81877ZM20.5422 4.59816H19.4572V5.54261H20.5285C20.9954 5.54261 21.2289 5.35098 21.2289 5.07723V5.06354C21.2426 4.78979 21.0091 4.59816 20.5422 4.59816Z" fill="#262969"/>
<path d="M24.6074 0.765625H30.0873V2.51764H26.7225V3.16096H29.8538V4.70766H26.7225V5.40573H30.1285V7.15774H24.6074V0.765625Z" fill="#262969"/>
<path d="M33.1639 2.57239H31.2686V0.765625H37.1879V2.57239H35.2926V7.15774H33.1501V2.57239H33.1639Z" fill="#262969"/>
<path d="M19.1139 8.47174H21.2426L23.9483 14.9186H21.6135L21.2701 14.0563H19.0177L18.6881 14.9186H16.3945L19.1139 8.47174ZM20.7482 12.537L20.1577 10.9766L19.5808 12.537H20.7482Z" fill="#EE3437"/>
<path d="M25.1294 8.51282H27.368L28.7414 10.7576L30.1149 8.51282H32.3535V14.9186H30.211V11.7431L28.7277 14.0152H28.6865L27.2307 11.7431V14.9186H25.1294V8.51282Z" fill="#EE3437"/>
<path d="M34.0154 8.51282H39.4953V10.2648H36.1304V10.9082H39.2618V12.4549H36.1304V13.1529H39.5365V14.9049H34.0154V8.51282Z" fill="#EE3437"/>
<path d="M41.0334 8.51282H44.1648C45.3047 8.51282 46.0326 8.80026 46.4721 9.23826C46.8567 9.62152 47.0627 10.1006 47.0627 10.7576V10.7713C47.0627 11.702 46.582 12.359 45.7992 12.7286L47.2962 14.9049H44.8515L43.6292 13.0845H43.176V14.9186H41.0334V8.51282ZM44.1099 11.5515C44.618 11.5515 44.9339 11.3188 44.9339 10.9355V10.9218C44.9339 10.5112 44.618 10.3059 44.1236 10.3059H43.1897V11.5652H44.1099V11.5515Z" fill="#EE3437"/>
<path d="M48.5183 8.51282H50.6608V14.9186H48.5183V8.51282Z" fill="#EE3437"/>
<path d="M52.1992 11.7294V11.7157C52.1992 9.79943 53.6962 8.37592 55.6053 8.37592C57.0199 8.37592 57.9675 9.0603 58.5169 10.0458L56.7452 11.0724C56.5117 10.6207 56.1684 10.2922 55.5778 10.2922C54.8499 10.2922 54.3829 10.9218 54.3829 11.6883V11.7157C54.3829 12.5506 54.8774 13.1392 55.5778 13.1392C56.1821 13.1392 56.5254 12.8107 56.7864 12.3316L58.5581 13.3308C58.0225 14.2753 57.116 15.0555 55.5229 15.0555C53.7374 15.0418 52.1992 13.7141 52.1992 11.7294Z" fill="#EE3437"/>
<path d="M61.6893 8.47174H63.8181L66.5237 14.9186H64.1889L63.8456 14.0563H61.5932L61.2636 14.9186H58.97L61.6893 8.47174ZM63.3237 12.537L62.7331 10.9766L62.1563 12.537H63.3237Z" fill="#EE3437"/>
<path d="M9.92573 14.7817H0.174561V11.9073H9.92573C10.6536 11.9073 11.2442 11.3188 11.2442 10.5933C11.2442 9.86787 10.6536 9.27931 9.92573 9.27931H0.174561V6.40491H9.92573C12.2468 6.40491 14.1284 8.28011 14.1284 10.5933C14.1284 12.9065 12.2468 14.7817 9.92573 14.7817Z" fill="#EE3437"/>
<path d="M9.92573 9.26562H0.174561V6.39122H9.92573C10.6536 6.39122 11.2442 5.80265 11.2442 5.07721C11.2442 4.35176 10.6536 3.76319 9.92573 3.76319H5.69565V0.888794H9.92573C12.2468 0.888794 14.1284 2.764 14.1284 5.07721C14.1284 7.39041 12.2468 9.26562 9.92573 9.26562Z" fill="#EE3437"/>
<path d="M4.0613 0.888794H0.174561V4.76239H4.0613V0.888794Z" fill="#262969"/>
<path d="M64.9993 9.10139C64.9993 8.7592 65.2739 8.45807 65.631 8.45807C65.9881 8.45807 66.2628 8.74551 66.2628 9.0877C66.2628 9.42989 65.9881 9.71733 65.631 9.71733C65.2739 9.73102 64.9993 9.44358 64.9993 9.10139ZM66.1941 9.0877C66.1941 8.77288 65.9469 8.52651 65.631 8.52651C65.3152 8.52651 65.0679 8.78657 65.0679 9.0877C65.0679 9.40251 65.3152 9.64889 65.631 9.64889C65.9469 9.66258 66.1941 9.40251 66.1941 9.0877ZM65.3838 8.7592H65.6722C65.8096 8.7592 65.9195 8.82763 65.9195 8.96451C65.9195 9.07401 65.8508 9.12876 65.7684 9.15614L65.9332 9.40251H65.7821L65.631 9.18351H65.4937V9.40251H65.3701V8.7592H65.3838ZM65.6722 9.07401C65.7546 9.07401 65.8096 9.03295 65.8096 8.96451C65.8096 8.89607 65.7684 8.85501 65.6722 8.85501H65.5212V9.06032H65.6722V9.07401Z" fill="#262969"/>
</svg>
