<svg width="56" height="26" viewBox="0 0 56 26" fill="none" xmlns="http://www.w3.org/2000/svg">
<path fill-rule="evenodd" clip-rule="evenodd" d="M43.3708 18.4209C44.7782 18.268 46.7676 18.1361 46.7391 19.6815C46.7107 21.2216 44.7748 20.9111 43.3604 20.8958L43.3708 18.4209ZM22.7172 10.874C22.6117 9.1701 23.8528 8.94615 23.6334 7.1352C23.3402 7.14545 21.5801 8.04602 22.1491 9.80268C22.2695 10.174 22.4281 10.6348 22.7172 10.874ZM31.1168 12.9143C32.9455 12.1583 33.1989 10.7521 32.2836 9.17271C31.8501 9.34192 31.634 10.1749 31.6112 10.8459C31.5718 12.0103 31.5681 12.0674 31.1168 12.9143ZM33.266 10.9322C33.6522 10.5818 34.1077 9.3295 33.8861 8.58985C33.7323 8.07611 32.8668 7.12975 32.3416 7.14349C32.1599 8.98104 33.3388 9.12343 33.266 10.9322ZM21.8114 8.09813C22.3401 7.44746 21.8857 7.5905 23.2351 6.73398C23.7138 6.43023 24.4489 5.94854 24.461 5.24466C22.4924 5.2403 21.6943 6.02399 21.8114 8.09813ZM27.6751 13.5253C27.4264 13.331 27.2256 13.2717 26.9222 12.9394C26.68 12.674 26.5252 12.413 26.3328 12.104C25.9952 11.5615 25.6278 10.9525 24.845 10.8321C24.8502 12.7879 25.6345 13.6934 27.6751 13.5253ZM24.8505 12.9004C24.4671 12.0011 24.4062 12.1642 24.3644 10.9307C24.3387 10.1677 24.2395 9.59858 23.7712 9.14764C23.3259 9.50089 22.9793 10.7726 23.2561 11.4542C23.4835 12.014 24.2609 12.6716 24.8505 12.9004ZM28.2921 13.5242C30.3362 13.7111 31.1384 12.7883 31.1289 10.824C29.8681 11.1503 29.734 12.2259 29.094 12.9017C28.8228 13.188 28.5921 13.2796 28.2921 13.5242ZM34.1824 8.03294C34.2418 6.06149 33.474 5.17597 31.5118 5.25316C31.5913 6.29089 32.8917 6.71893 33.4724 7.23725L34.0741 7.91758C34.0893 7.93525 34.1146 7.96076 34.1274 7.97515C34.1404 7.98976 34.1629 8.01506 34.1827 8.03294H34.1824ZM29.8302 4.15002C30.6974 5.1256 32.2879 4.41801 33.5909 5.30353C33.2918 4.6413 32.759 3.93 32.1449 3.66659C31.4102 3.35128 30.204 3.71783 29.8302 4.15023V4.15002ZM22.4402 5.24531C23.2929 4.84322 23.2288 4.80288 24.3952 4.76014C25.1554 4.73223 25.7599 4.58765 26.1615 4.15002C25.2386 3.11905 23.1316 3.30156 22.4402 5.24531ZM19.958 11.2913C20.0936 11.7931 20.9988 12.6934 21.4335 12.93C22.271 13.3858 23.4001 13.1352 24.4188 13.1878L23.9655 12.79C22.8753 11.9972 21.8543 10.0918 19.9578 11.2913H19.958ZM31.5471 13.1871C32.5827 13.1727 33.5827 13.4128 34.4287 13.0061C34.924 12.768 35.9193 11.8398 36.0055 11.2913C34.1688 10.2957 33.4458 11.5755 32.5534 12.3668L31.5471 13.1871ZM22.4114 4.65002L22.6328 4.43676C22.7155 4.3382 22.7575 4.25447 22.8192 4.17095L24.0855 2.7706C24.9167 1.82532 24.7175 1.30701 24.3038 0.140625C23.7658 0.358245 22.9228 1.16178 22.646 1.67857C22.1742 2.55974 22.4482 3.6003 22.4114 4.6498V4.65002ZM33.7072 10.8964C35.5485 9.72025 36.539 9.97865 36.7352 6.97231C34.6267 7.07698 34.667 8.2124 34.1855 9.64938C34.0752 9.97865 33.757 10.6411 33.7072 10.8964ZM34.4423 7.79416C34.6778 7.47428 35.552 6.08679 35.6737 5.69036C35.9262 4.86698 35.5491 3.38944 35.1207 2.91735C33.2134 3.78848 34.2405 5.72678 34.4423 7.79416ZM33.5959 4.7802C33.5721 3.84845 33.7923 2.51285 33.4051 1.77474C33.1226 1.23636 32.2643 0.377216 31.7514 0.161558C31.1213 0.880052 31.251 1.95747 31.9348 2.80767C32.2461 3.19493 32.511 3.39554 32.7941 3.7259C33.0912 4.07282 33.3072 4.4252 33.5959 4.7802ZM22.2747 10.8592C22.158 10.4691 21.9459 10.0888 21.7941 9.61602C21.3707 8.29678 21.2819 6.93372 19.2474 6.97231C19.3147 7.98845 19.5149 8.95553 20.0912 9.54908C20.4995 9.96949 21.7339 10.6051 22.2745 10.8592H22.2747ZM28.4838 14.0674C28.8217 14.3271 30.193 15.1804 30.6008 15.3029C31.5283 15.5818 32.6481 15.108 33.3327 14.7696C32.5669 12.8611 30.4655 13.7547 28.4838 14.0674ZM22.6668 14.8012C23.3973 15.0663 24.312 15.5644 25.2895 15.3199C25.6352 15.2336 26.9092 14.4874 27.2809 14.1917C27.4141 14.0857 27.3415 14.1559 27.4396 14.0391C25.9601 13.9366 23.3492 12.6232 22.6668 14.8014V14.8012ZM21.5329 7.78871C21.7363 6.19167 22.8491 3.56977 20.8155 2.89511C20.5054 3.60182 20.0343 4.6341 20.2985 5.60336C20.4205 6.05037 20.6358 6.38116 20.8682 6.71653C21.1088 7.06368 21.2953 7.42325 21.5329 7.78871ZM8.0683 23.9671L6.94915 22.738C6.45662 22.9351 5.41567 24.2035 3.75244 23.5897C2.79899 23.2377 2.11044 22.2569 2.09073 21.0219C2.05802 18.97 3.87481 17.7922 5.47891 18.3788C6.10314 18.6069 6.33966 18.9106 6.83544 19.1775C7.13239 18.9748 7.14756 18.8431 7.45339 18.5186C7.68926 18.268 7.8242 18.1309 8.02065 17.8077C6.49474 15.536 -0.0392618 15.8029 0.0647035 21.1121C0.129465 24.4303 3.1828 26.1327 5.99571 25.3549C6.76917 25.1409 7.83481 24.4218 8.06852 23.9674L8.0683 23.9671ZM54.6279 19.0496C54.8707 18.8215 55.488 17.912 55.5839 17.6291C54.9185 16.9128 53.4091 16.4745 52.142 16.528C48.9011 16.6645 48.4558 20.3718 50.7166 21.3858C51.7955 21.8697 53.1838 21.9586 53.9222 22.6056C54.0875 23.8324 53.1821 23.9715 52.0794 23.7722C51.1364 23.6019 50.7077 23.0411 50.1056 22.8077C49.8595 23.0476 49.1563 23.8882 49.0378 24.1455C50.523 25.6887 54.1485 26.2822 55.491 24.3016C56.2335 23.2063 56.2454 21.2521 53.9735 20.4281C53.3326 20.1957 52.1362 19.9571 51.6854 19.7022C50.8325 19.2196 51.1977 18.2142 52.411 18.2345C53.5419 18.2534 53.9406 18.8649 54.6276 19.0491L54.6279 19.0496ZM30.3325 19.0439C30.632 18.741 31.1254 17.9867 31.3052 17.6289C30.4512 16.7046 28.092 16.0809 26.5754 16.7918C24.6861 17.6775 24.7593 19.8849 25.6005 20.787C26.5403 21.7942 29.407 21.8974 29.6608 22.7633C29.9593 23.7805 28.601 23.9009 27.8013 23.7493C26.7879 23.5574 26.4548 23.0036 25.7695 22.7654C25.5015 23.3162 24.965 23.6226 24.7558 24.1457C25.625 25.0845 27.6502 25.7875 29.3979 25.4307C31.3968 25.0228 32.028 23.0836 31.404 21.7266C30.7143 20.2266 28.7966 20.379 27.4084 19.6815C26.6172 19.2837 26.8098 18.2013 28.1156 18.2166C29.0751 18.2277 29.6937 18.7622 30.3327 19.0443L30.3325 19.0439ZM35.1889 21.729C35.2318 21.3688 36.0714 19.3254 36.2732 19.0485C36.3142 19.0964 36.3222 19.1041 36.3824 19.2079C36.4186 19.27 36.4413 19.3202 36.4729 19.3882L37.3991 21.7223L35.1889 21.729ZM33.5244 25.4037C33.8669 25.2059 34.2754 23.8958 34.4322 23.4344L38.1186 23.4621L38.8981 25.4179L40.8895 25.4052L39.0363 20.9185C38.7123 20.1658 38.3963 19.4015 38.0824 18.6638C37.04 16.2129 37.7276 16.562 35.4751 16.5783C35.2808 16.8044 31.8047 24.9541 31.7269 25.4015L33.5244 25.4037ZM11.5726 21.693C11.5936 21.3854 12.4992 19.173 12.6757 18.982C12.8524 19.3544 13.7164 21.3636 13.7171 21.6952L11.5726 21.693ZM10.8251 23.4214L14.4858 23.4235L15.2735 25.3876L17.235 25.3904C17.1072 24.3433 14.2018 18.384 13.5936 16.5362L11.8004 16.5663C11.3189 17.4013 8.11313 25.2203 8.09061 25.391L10.0218 25.3793L10.8251 23.4211V23.4214ZM17.8839 25.3882L24.4201 25.4033L24.4262 23.7042L19.7007 23.7029L19.6606 21.8123L23.7824 21.7892L23.8006 20.1097L19.7115 20.0914L19.7183 18.3431L24.3681 18.3079L24.3701 16.7157C23.847 16.5807 18.6533 16.5925 17.8478 16.6461L17.8839 25.388V25.3882ZM46.8933 22.2532C49.1623 21.5044 50.192 16.6252 45.0514 16.6335C43.8636 16.6355 42.6138 16.5953 41.4267 16.6433L41.4308 25.4192L43.3526 25.3863V22.6023L44.8844 22.6281C45.156 23.1283 45.4993 23.5895 45.8229 24.081C46.9364 25.7718 46.3364 25.4192 48.902 25.4153C48.6743 24.7495 47.075 22.8372 46.8933 22.253V22.2532Z" fill="black"/>
</svg>
