<svg width="67" height="14" viewBox="0 0 67 14" fill="none" xmlns="http://www.w3.org/2000/svg">
<path fill-rule="evenodd" clip-rule="evenodd" d="M39.2555 0.875722C41.275 0.875722 42.8348 1.11057 43.617 2.62324C43.9841 3.33278 44.1097 4.37035 43.8505 5.2412C43.5738 6.17097 43.1137 6.50139 42.4988 6.94764L42.8645 7.1895C44.9488 8.48115 45.1791 13.4832 39.9187 13.4917L34.6092 13.4915C34.5204 12.7937 34.5977 3.53757 34.5871 1.6043C34.5863 1.48868 34.578 1.30894 34.5859 1.20054L34.6514 0.881733L39.2551 0.875722H39.2555ZM52.7327 5.80327L52.7371 8.48476L48.6067 8.59096C48.5985 8.60759 48.5916 8.63023 48.5878 8.64366C48.4606 9.10754 48.5269 10.0255 48.5687 10.4579C48.8826 10.5737 53.3499 10.5443 53.5705 10.4417L53.6573 10.6146L53.6477 13.476L45.0553 13.4878L45.0467 0.895159L53.6417 0.870512L53.6606 3.7121C53.5788 3.81209 53.7415 3.80227 53.3923 3.84636L48.4763 3.85077L48.4849 5.74135C49.2707 5.79586 52.2929 5.60109 52.7327 5.80307V5.80327ZM57.9125 13.4826C57.7103 13.1666 57.887 4.9787 57.8406 3.78143L54.5346 3.77883C54.4584 3.47225 54.6298 1.34421 54.6843 0.876524L64.4652 0.89035L64.4711 3.75358C63.9119 3.82231 61.3459 3.67623 61.1164 3.83013L61.104 13.482L57.9127 13.4828L57.9125 13.4826ZM33.6311 13.8273H66.5238V0.46875H33.3262C33.2496 0.732651 31.726 3.32757 31.4453 3.82692L30.0284 6.33428C29.8202 6.70037 29.6217 6.8192 29.8122 7.16285C30.1341 7.74295 33.5006 13.4484 33.6313 13.8273H33.6311Z" fill="#FDDD06"/>
<path fill-rule="evenodd" clip-rule="evenodd" d="M10.0512 7.88281C9.83005 5.30172 10.9934 3.04965 13.0001 1.88904C13.6315 1.52395 14.3946 1.22959 15.2691 1.11918C18.7597 0.678748 21.5685 3.36625 21.9255 6.42304C22.3471 10.0333 19.7027 12.847 16.655 13.1771C13.309 13.5393 10.3211 11.0298 10.0514 7.88281H10.0512ZM9.21861 6.02028L9.22418 9.41232L5.75357 9.41272L5.76153 13.4903L2.23241 13.4977L2.21947 0.872917L9.76019 0.875321L9.93355 3.64337L10.0442 4.33969H5.79537L5.78601 5.96097C6.14249 5.96778 8.93219 5.88442 9.21881 6.02028H9.21861ZM20.3782 0.910588L24.3245 0.903374C24.7403 1.50011 25.503 3.23981 25.7841 3.55661C26.0432 3.31695 26.4232 2.46554 26.5942 2.15094L27.1511 1.11257C27.2731 0.907783 27.2412 0.907582 27.5089 0.903976L31.1163 0.903374L28.0113 6.38537C27.8111 6.75648 27.6383 6.8224 27.8535 7.19812L31.456 13.457L27.5091 13.4648L26.2076 11.1342C26.1254 10.9823 26.0693 10.8783 25.9954 10.7434C25.8693 10.5128 25.8623 10.4441 25.6897 10.3325C25.5064 10.8204 24.7206 12.1625 24.3765 12.8116C24.0164 13.4905 24.1567 13.4718 23.7937 13.4748L20.1734 13.4664L23.7189 7.20152C23.9197 6.81659 23.6944 6.73343 23.4967 6.37956L20.3782 0.910789V0.910588ZM0.17476 13.8273H33.6277C33.4972 13.4484 30.1306 7.74295 29.8086 7.16285C29.6181 6.8192 29.8166 6.70037 30.0248 6.33428L31.4417 3.82692C31.7223 3.32777 33.246 0.732651 33.3226 0.46875H0.174561V13.8273H0.17476Z" fill="#1A2E51"/>
<path fill-rule="evenodd" clip-rule="evenodd" d="M15.7433 3.63017C16.4461 3.41035 16.9774 4.00869 17.0424 4.60882L17.0546 9.15224C17.0562 9.976 16.9841 10.5082 16.2851 10.704C15.5562 10.9082 15.0001 10.3383 14.9788 9.68686L14.9802 5.14424C14.9768 4.33951 15.0913 3.83415 15.7431 3.63017H15.7433ZM10.0497 7.88324C10.3194 11.0304 13.3073 13.5398 16.6533 13.1775C19.701 12.8475 22.3454 10.0337 21.9238 6.42347C21.5669 3.36667 18.7581 0.67917 15.2674 1.11961C14.3929 1.23001 13.6299 1.52437 12.9984 1.88947C10.9919 3.04987 9.82834 5.30214 10.0495 7.88324H10.0497Z" fill="#FEFDFE"/>
<path fill-rule="evenodd" clip-rule="evenodd" d="M39.9787 10.9319L37.8577 11.0339L37.8456 8.19949C38.1499 8.19128 39.7024 8.11453 39.9779 8.3107C41.2838 8.32233 41.3009 10.9375 39.9785 10.9319H39.9787ZM39.6013 5.8823C39.2502 6.03278 38.3211 5.95063 37.8631 5.9348L37.8484 3.35991C38.2427 3.34729 39.4813 3.26113 39.6959 3.43726C41.1116 3.35791 41.1216 5.9869 39.6013 5.8823ZM34.6477 0.882415L34.5822 1.20122C34.574 1.30963 34.5826 1.48937 34.5834 1.60499C34.5939 3.53825 34.5167 12.7944 34.6055 13.4921L39.915 13.4923C45.1753 13.4839 44.9449 8.48163 42.8607 7.19018L42.4951 6.94832C43.1099 6.50207 43.5699 6.17165 43.8468 5.24188C44.1059 4.37083 43.9803 3.33346 43.6133 2.62392C42.8309 1.11125 41.2712 0.876404 39.2518 0.876404L34.6481 0.882415H34.6477Z" fill="#1A2E51"/>
<path fill-rule="evenodd" clip-rule="evenodd" d="M53.6525 10.614L48.4153 10.604L48.4171 8.48595L52.7324 8.48414L52.728 5.80266L48.4057 5.81167C48.3546 5.41312 48.3285 4.11165 48.4282 3.75978C49.3888 3.7191 53.1056 3.84594 53.6559 3.71189L53.637 0.8703L45.042 0.894947L45.0505 13.4876L53.643 13.4758L53.6525 10.6144V10.614Z" fill="#1A2E51"/>
<path fill-rule="evenodd" clip-rule="evenodd" d="M20.3835 0.910307L23.502 6.37908C23.6997 6.73275 23.9252 6.81611 23.7242 7.20104L20.1787 13.4659L23.799 13.4743C24.162 13.4713 24.0217 13.49 24.3818 12.8111C24.7259 12.162 25.5117 10.8199 25.695 10.332C25.8676 10.4436 25.8746 10.5123 26.0007 10.743C26.0744 10.8778 26.1305 10.982 26.2129 11.1337L27.5144 13.4643L31.4613 13.4565L27.8588 7.19763C27.6438 6.82192 27.8164 6.75599 28.0166 6.38489L31.1216 0.902893L27.5142 0.903494C27.2465 0.907101 27.2784 0.907301 27.1564 1.11209L26.5994 2.15046C26.4283 2.46506 26.0483 3.31647 25.7894 3.55613C25.5081 3.23932 24.7456 1.49962 24.3298 0.902893L20.3835 0.910107V0.910307Z" fill="#FEFDFE"/>
<path fill-rule="evenodd" clip-rule="evenodd" d="M9.21472 6.02008C8.58377 6.01948 6.18915 6.11666 5.77277 5.98301C5.67405 5.76419 5.66847 4.53045 5.78232 4.28458L9.97325 4.29721L9.92966 3.64277L9.7563 0.874719L2.21558 0.872314L2.22851 13.4971L5.75764 13.4896L5.74968 9.41211L9.22029 9.41171L9.21472 6.01968V6.02008Z" fill="#FEFDFE"/>
<path fill-rule="evenodd" clip-rule="evenodd" d="M57.9148 13.4827C57.8157 12.1388 57.92 5.6184 57.9371 3.82339L57.9568 13.3963C58.3844 13.446 59.0241 13.4094 59.4934 13.4094C59.9623 13.4094 60.615 13.5142 61.02 13.3274L61.0539 4.34137C61.0439 4.02337 60.9316 3.95524 61.1187 3.83001C61.3482 3.67611 63.9142 3.82219 64.4735 3.75346L64.4675 0.89023L54.6867 0.876404C54.6321 1.34409 54.4609 3.47213 54.537 3.77871L57.843 3.78131C57.8894 4.97858 57.7128 13.1665 57.9148 13.4825V13.4827Z" fill="#1A2E51"/>
<path fill-rule="evenodd" clip-rule="evenodd" d="M15.7435 3.62988C15.0917 3.83387 14.9773 4.33922 14.9806 5.14395L14.9792 9.68656C15.0007 10.3382 15.5569 10.9079 16.2855 10.7037C16.9845 10.5079 17.0566 9.97571 17.055 9.15195L17.0429 4.60853C16.9776 4.0084 16.4465 3.41006 15.7437 3.62988H15.7435Z" fill="#1A2E51"/>
<path fill-rule="evenodd" clip-rule="evenodd" d="M39.9821 10.9315C41.3045 10.9369 41.2874 8.32199 39.9815 8.31036L37.978 8.31137C37.8877 8.68147 37.9014 10.562 37.9756 10.9472C38.1578 10.9063 39.754 10.9085 39.9821 10.9315Z" fill="#FDDD06"/>
<path fill-rule="evenodd" clip-rule="evenodd" d="M39.5973 5.88137C41.1175 5.98597 41.1076 3.35698 39.6918 3.43633L37.9865 3.47601C37.8818 4.07635 37.9234 4.82256 37.9224 5.48201C37.9214 6.14287 38.12 5.80122 39.5973 5.88137Z" fill="#FDDD06"/>
<path fill-rule="evenodd" clip-rule="evenodd" d="M57.913 13.4832L61.1044 13.4824L61.1167 3.83053C60.9296 3.95576 61.0419 4.02389 61.0518 4.3419L61.018 13.3279C60.6131 13.5145 59.9603 13.4097 59.4914 13.4099C59.022 13.4099 58.3825 13.4466 57.9548 13.3969L57.9351 3.82391C57.918 5.61892 57.8137 12.1393 57.9128 13.4832H57.913Z" fill="#06151C"/>
<path fill-rule="evenodd" clip-rule="evenodd" d="M52.7301 5.80276C52.2904 5.60077 49.2683 5.79554 48.4823 5.74104L48.4737 3.85045L53.3897 3.84605C53.739 3.80196 53.5764 3.81198 53.658 3.71179C53.1077 3.84585 49.3907 3.71921 48.4303 3.75968C48.3308 4.11155 48.3567 5.41302 48.4078 5.81157L52.7301 5.80256V5.80276Z" fill="#A5A638"/>
<path fill-rule="evenodd" clip-rule="evenodd" d="M53.6484 10.6155L53.5616 10.4426C53.3413 10.5452 48.8737 10.5744 48.5598 10.4588C48.5182 10.0264 48.4517 9.10824 48.5789 8.64456C48.5827 8.63113 48.5897 8.60869 48.5978 8.59186L52.7282 8.48566L48.4129 8.48746L48.4111 10.6055L53.6484 10.6155Z" fill="#EEE932"/>
<path fill-rule="evenodd" clip-rule="evenodd" d="M9.21509 6.01937C8.92848 5.88351 6.13877 5.96687 5.7823 5.96005L5.79165 4.33878H10.0405L9.92983 3.64246L9.97342 4.2969L5.7825 4.28427C5.66865 4.52994 5.67422 5.76368 5.77294 5.9827C6.18933 6.11635 8.58414 6.01897 9.21489 6.01977L9.21509 6.01937Z" fill="#ABB5C3"/>
<path fill-rule="evenodd" clip-rule="evenodd" d="M39.9832 10.9319C39.7551 10.9088 38.1589 10.9064 37.9767 10.9475C37.9023 10.5623 37.8888 8.68178 37.9791 8.31168L39.9826 8.31068C39.7072 8.11451 38.1547 8.19125 37.8503 8.19947L37.8625 11.0338L39.9834 10.9319H39.9832Z" fill="#EEE932"/>
<path fill-rule="evenodd" clip-rule="evenodd" d="M39.6033 5.88092C38.126 5.80077 37.9274 6.14221 37.9284 5.48156C37.9294 4.82211 37.8878 4.0759 37.9925 3.47556L39.6978 3.43588C39.4833 3.25995 38.2444 3.34611 37.8503 3.35854L37.8651 5.93342C38.3231 5.94925 39.2522 6.0314 39.6033 5.88092Z" fill="#EEE932"/>
</svg>
