<svg width="70" height="11" viewBox="0 0 70 11" fill="none" xmlns="http://www.w3.org/2000/svg">
<path fill-rule="evenodd" clip-rule="evenodd" d="M18.6471 6.20568L16.1466 6.20696C16.0645 6.38504 15.7009 7.6966 15.6794 7.92182C16.4609 8.57377 18.1348 8.66948 19.3248 8.55431C20.6931 8.42182 21.6502 7.92864 22.1063 6.93872C22.8596 5.30324 22.0614 4.82184 20.64 4.51411C20.1806 4.41471 19.0908 4.30153 19.3298 3.70539C19.4277 3.46114 19.6792 3.28222 20.0474 3.33519C20.4805 3.39753 20.3008 3.81147 20.2521 4.11778L22.6874 4.12374L23.0993 2.59789C22.4668 2.3447 22.4167 2.17372 21.4643 2.03072C20.8151 1.93317 20.0383 1.9201 19.3759 1.98443C17.9721 2.1209 17.0859 2.62857 16.7008 3.748C16.1016 5.48941 17.4059 5.62886 18.7287 5.91642C18.98 5.97095 19.3628 6.05658 19.5138 6.20881C19.7397 6.43644 19.5598 6.87382 19.4047 7.034C19.2269 7.21761 18.7412 7.31276 18.5629 7.08399C18.4002 6.87538 18.6438 6.47152 18.6469 6.20554L18.6471 6.20568Z" fill="black"/>
<path fill-rule="evenodd" clip-rule="evenodd" d="M3.26761 8.46052L6.0757 8.46946C6.14411 8.356 6.22593 8.0105 6.26725 7.87389C6.42368 7.35557 6.36613 7.41933 6.20011 7.28627C6.18925 7.00695 6.51353 5.95384 6.62144 5.58306C6.64824 5.49104 6.67673 5.3861 6.69846 5.29791C6.73203 5.16116 6.73104 5.10181 6.81835 5.0362C7.06661 4.86906 7.56537 5.00538 7.50458 5.46122C7.43377 5.99118 6.71919 7.83427 6.81553 8.46321L9.24532 8.46818C9.70008 6.83669 9.43983 7.6934 9.37382 7.19908C9.34194 6.95995 9.84988 5.38681 9.95172 4.95242C10.144 4.13233 9.77145 3.78769 9.0958 3.68701C8.17247 3.5494 7.39611 3.89604 7.10229 3.92245C7.13022 3.51987 7.57905 2.31154 7.57186 2.07539L5.01385 2.07141C4.9216 2.30288 4.85601 2.62594 4.77886 2.88127C4.62468 3.39178 5.03233 2.99359 4.86039 3.64497L3.93197 7.00894C3.78542 7.47287 3.59372 7.19724 3.47199 7.63192C3.42855 7.78684 3.26507 8.33427 3.26761 8.46052Z" fill="black"/>
<path fill-rule="evenodd" clip-rule="evenodd" d="M41.6995 5.26762C41.7685 4.91829 41.9067 4.5938 42.2781 4.57804C42.8047 4.55575 42.7536 4.87142 42.6427 5.26748L41.6995 5.26762ZM44.7134 6.39656C44.8152 6.2094 44.9738 5.52933 45.0435 5.28168C45.4957 3.67432 44.4434 3.43475 42.8375 3.41431C40.8928 3.3896 39.6755 3.58272 39.1872 5.4518C38.6315 7.57904 38.0681 8.47424 40.8404 8.58927C41.7466 8.6269 42.5848 8.57436 43.3963 8.32528C43.6707 8.24107 44.2421 8.11 44.3328 7.82102C44.4216 7.53843 44.5963 6.97012 44.6348 6.70911L42.1891 6.71025C42.1379 6.92936 42.0677 7.20287 41.8981 7.33692C41.6947 7.49781 41.3836 7.46316 41.2143 7.3098C41.1601 7.06384 41.2851 6.62349 41.3772 6.40977L44.7133 6.39656H44.7134Z" fill="black"/>
<path fill-rule="evenodd" clip-rule="evenodd" d="M31.713 4.62876C32.6455 4.24321 32.1281 5.56131 32.0271 5.92726C31.9007 6.38494 31.7485 7.32771 31.3574 7.42002C30.4204 7.64126 30.9211 6.61811 31.0452 6.14339C31.1921 5.58247 31.3211 4.79079 31.713 4.62876ZM34.7345 4.9487C34.9369 3.85128 34.3212 3.57366 33.3642 3.46573C32.547 3.37357 31.4429 3.38238 30.6418 3.53134C29.1321 3.81223 29.016 4.69891 28.6724 5.92598C28.2725 7.35413 27.8501 8.36009 29.7466 8.55578C30.5374 8.63729 31.6867 8.63402 32.4442 8.47512C33.3271 8.2898 33.7639 7.90653 34.0828 7.1921C34.2346 6.85185 34.6616 5.34347 34.7344 4.9487H34.7345Z" fill="black"/>
<path fill-rule="evenodd" clip-rule="evenodd" d="M12.6758 5.45939C12.7607 4.49645 13.9545 4.66004 13.5513 5.43142C13.3577 5.52713 12.9179 5.49305 12.6758 5.45939ZM15.5179 6.54048C15.8241 5.05425 16.805 3.74908 13.6989 3.72224C12.8396 3.71485 12.0279 3.74823 11.3616 4.08279C10.7146 4.4077 10.5039 4.92857 10.2967 5.66303C9.73568 7.6521 9.2939 8.48865 11.8624 8.59728C12.7394 8.63435 13.5259 8.57982 14.2783 8.34522C14.5218 8.26925 15.0557 8.11986 15.1356 7.88385C15.2088 7.66786 15.3814 7.06277 15.4151 6.82548L13.14 6.84409C13.0141 7.08152 13.0558 7.25902 12.8437 7.42347C12.6703 7.5578 12.3302 7.56817 12.2124 7.36567C12.1124 7.12327 12.2971 6.79935 12.3387 6.54602L15.5176 6.54005L15.5179 6.54048Z" fill="black"/>
<path fill-rule="evenodd" clip-rule="evenodd" d="M28.2781 6.37623L25.9813 6.37765C25.7431 7.77086 25.0062 7.47606 24.9298 7.28506C24.8653 7.01 25.2972 5.64036 25.3978 5.2818C25.5049 4.89966 25.5582 4.5969 25.984 4.57788C26.5814 4.55118 26.3443 4.99125 26.2812 5.39142L28.5718 5.39015L28.9449 4.0171C28.6559 3.89696 28.4681 3.74516 28.0866 3.63425C27.1062 3.3491 25.5748 3.32922 24.6158 3.57106C23.8912 3.75382 23.4452 4.08029 23.1779 4.6547C22.959 5.12488 22.7319 6.08299 22.5832 6.62886C22.355 7.46697 22.353 8.0357 23.0818 8.35223C23.7155 8.6273 24.6296 8.62389 25.3718 8.58214C26.0977 8.54138 26.8467 8.41102 27.4422 8.14405C27.9567 7.91344 27.8459 7.9657 27.9993 7.41841C28.0928 7.08441 28.2172 6.71733 28.2781 6.37609V6.37623Z" fill="black"/>
<path fill-rule="evenodd" clip-rule="evenodd" d="M37.4018 7.40052C37.2187 7.22884 37.0635 7.23438 37.1951 6.82767C37.5617 5.69376 37.5242 5.19475 38.7264 5.13625C39.0253 5.12162 38.9689 4.9924 39.0542 4.67913C39.1651 4.27271 39.2857 3.84102 39.3903 3.43289C38.8041 3.33051 38.099 3.59279 37.9359 3.87723L38.0117 3.51142L35.4066 3.50858L35.1013 4.62801C35.2441 4.80751 35.3321 4.75184 35.2631 5.08115L34.8361 6.62248C34.6192 7.40095 34.4303 7.2179 34.3154 7.42268C34.2667 7.50944 34.0509 8.35309 34.0247 8.50248L37.1037 8.49723L37.4019 7.40052H37.4018Z" fill="black"/>
<path fill-rule="evenodd" clip-rule="evenodd" d="M1.12751 3.74773L0.826498 3.76775L0.527887 4.82342C0.620982 4.86261 0.597144 4.83563 0.650886 4.85395L0.773179 4.90791C0.698139 5.54537 0.0688986 7.06909 0.0794776 7.80198C0.0880818 8.39684 0.583744 8.54041 1.12553 8.5556C1.6518 8.57023 2.31433 8.52394 2.84074 8.47665C2.9014 8.31235 3.11453 7.55574 3.11114 7.40948C2.34311 7.27727 2.41138 7.34444 2.77163 6.00221C2.85443 5.69377 2.97615 5.04708 3.12285 4.85878L3.82502 4.84955C3.90217 4.73992 4.11389 3.9667 4.13449 3.77215L3.41793 3.77514L3.77184 2.3761C3.49763 2.392 3.18054 2.48005 2.91776 2.53458C2.64242 2.59166 2.38133 2.64193 2.09133 2.70527C1.88271 2.75099 1.41173 2.76136 1.33175 2.94171C1.28845 3.03955 1.14034 3.62887 1.12737 3.74773H1.12751Z" fill="black"/>
<path fill-rule="evenodd" clip-rule="evenodd" d="M21.2015 10.211C21.397 10.211 21.4311 9.82493 21.4689 9.67824C21.515 9.4996 21.6227 9.21374 21.6191 9.06506L15.3517 9.06378L15.0486 10.2088L21.2013 10.2112L21.2015 10.211Z" fill="#FFBE00"/>
<path d="M49.3862 0.767418C49.3862 0.662902 49.4704 0.578125 49.5743 0.578125C49.6781 0.578125 49.7623 0.662902 49.7623 0.767418V9.98783C49.7623 10.0923 49.6781 10.1771 49.5743 10.1771C49.4704 10.1771 49.3862 10.0923 49.3862 9.98783V0.767418Z" fill="#373435"/>
<path d="M56.2693 7.27323C56.3623 7.27323 56.46 7.26613 56.5623 7.25222C56.6645 7.23816 56.7621 7.20308 56.8552 7.14685C56.9482 7.09061 57.0249 7.00399 57.0853 6.88698C57.1457 6.76996 57.176 6.61319 57.176 6.41651C57.176 6.19186 57.1063 5.99518 56.9668 5.82662C56.8273 5.65806 56.5902 5.57385 56.2555 5.57385H55.3209V7.27309H56.2693V7.27323ZM56.2414 4.43653C56.5297 4.43653 56.7202 4.35701 56.8132 4.19782C56.9062 4.03877 56.9527 3.8749 56.9527 3.70634C56.9527 3.53778 56.9015 3.37632 56.7992 3.22182C56.697 3.06731 56.497 2.99021 56.1995 2.99021H55.3207V4.43653H56.2414ZM53.8701 8.4107V1.85274H56.2414C56.4738 1.85274 56.718 1.86907 56.9737 1.90188C57.2295 1.93468 57.4666 2.01179 57.6851 2.13349C57.9035 2.25519 58.0849 2.4378 58.2291 2.6812C58.3733 2.9246 58.4453 3.25689 58.4453 3.67822C58.4453 3.8935 58.4127 4.07839 58.3477 4.2329C58.2827 4.3874 58.2036 4.51605 58.1106 4.61915C58.0177 4.7221 57.9177 4.80404 57.8107 4.86482C57.7038 4.92574 57.6085 4.97019 57.5248 4.9983C57.7202 5.0544 57.8899 5.13406 58.0339 5.23702C58.178 5.33997 58.2967 5.4594 58.3896 5.59515C58.4826 5.73091 58.5524 5.87831 58.5988 6.0375C58.6453 6.19655 58.6685 6.35573 58.6685 6.51492C58.6685 7.17965 58.4662 7.66176 58.0617 7.96125C57.6571 8.26088 57.0503 8.4107 56.2414 8.4107H53.8701ZM59.7124 8.4107V1.85274H63.8691L63.6599 3.07456H61.1632V4.45073H63.4508L63.2555 5.6724H61.1633V7.18902H63.8694L63.6602 8.41084H59.7127L59.7124 8.4107ZM66.7822 8.4107V3.07441H65.0107L65.2199 1.8526H69.9206L69.7114 3.07441H68.2329V8.4107H66.7823H66.7822Z" fill="black"/>
</svg>
