<svg width="47" height="30" viewBox="0 0 47 30" fill="none" xmlns="http://www.w3.org/2000/svg">
<path fill-rule="evenodd" clip-rule="evenodd" d="M0.650879 1.85297H46.0477V0.734375H0.650879V1.85297ZM26.6774 12.3679C26.7659 12.2085 26.7264 11.9354 26.7264 11.473V8.62049H22.9617V10.0188H25.1763V11.6965C24.9751 11.7263 24.5452 12.149 23.5766 12.2619C21.423 12.513 19.9811 10.9225 20.1415 8.96003C20.3201 6.77637 22.0838 5.62364 23.9229 6.13947C24.6564 6.34514 24.8703 6.58605 25.3976 6.94279C25.5995 6.80624 26.3365 5.96232 26.3941 5.71239C26.0502 5.61961 25.596 4.89384 24.0314 4.63159C22.9487 4.45018 21.9041 4.61513 21.0801 4.98601C19.942 5.49831 19.0284 6.60032 18.6855 7.82437C18.0162 10.2148 19.1576 12.6941 21.3761 13.4665C22.3237 13.7963 23.3356 13.85 24.3912 13.5886C25.0806 13.4178 26.3235 12.8481 26.6773 12.3681L26.6774 12.3679ZM44.6083 17.766V16.3948H38.0756V25.2878H44.6636V23.9274C44.5729 23.8298 44.7165 23.8218 44.1109 23.8322C43.8897 23.8359 43.6671 23.8335 43.4458 23.8335H39.6258V21.5403C39.9358 21.5403 43.8656 21.5795 43.972 21.5127C44.1797 21.3822 44.0548 20.3813 44.0548 20.0861H39.6259V17.8489L44.485 17.8298C44.6632 17.7747 44.482 17.8864 44.6085 17.7659L44.6083 17.766ZM1.42599 6.99862V7.44594C1.42599 9.44392 3.99403 9.69873 5.18488 10.0805C5.83932 10.2902 6.29777 10.5064 6.29777 11.2493C6.29777 12.5899 4.04471 12.616 2.54347 11.5746C2.36559 11.4512 2.15441 11.2127 1.92427 11.1934C1.83377 11.536 1.12261 12.018 1.09389 12.368C1.20491 12.398 1.61944 12.7408 1.77994 12.8494C3.36203 13.9209 6.30899 14.2141 7.45109 12.5261C7.96808 11.7621 8.08176 10.5253 7.51771 9.73762C6.28691 8.01883 2.97635 8.69377 2.97635 7.05458C2.97635 5.91246 4.63941 5.77616 5.7266 6.28955L6.79629 6.88682L7.63163 5.71581C7.15603 5.39382 6.93869 5.18595 6.33844 4.94443C5.64852 4.66671 5.12394 4.59368 4.30501 4.59368C2.86158 4.59368 1.42624 5.58938 1.42624 6.99874L1.42599 6.99862ZM34.5325 22.8828C34.5325 24.3112 32.2354 24.2801 30.8 23.2977C30.6241 23.1772 30.3861 22.9292 30.2141 22.8828L29.2678 23.9971C30.0461 24.5266 29.6579 24.3909 30.7299 24.9345C31.5463 25.3486 32.2828 25.3998 33.2037 25.3998C34.6483 25.3998 36.0825 24.4091 36.0825 22.9947V22.4913C36.0825 19.6694 31.2106 20.5481 31.2106 18.7999C31.2106 17.4712 32.9144 17.5385 33.956 17.9839C34.2921 18.1276 34.8149 18.518 35.0306 18.5762L35.8275 17.4171C35.4331 16.8878 33.8854 16.2831 32.9269 16.2831C31.7259 16.2831 30.7212 16.506 30.0798 17.4338C29.5506 18.1992 29.4611 19.3716 29.9801 20.2108C31.0059 21.8692 34.5324 21.2437 34.5324 22.8829L34.5325 22.8828ZM9.39811 9.96281C9.39811 12.0714 10.7213 13.7102 12.7752 13.7102C14.112 13.7102 15.034 13.6875 16.0308 12.5806C16.5865 11.9636 16.9273 11.0147 16.9273 9.85101V4.70535H15.3772V9.34761C15.3772 11.178 14.9278 12.256 12.9966 12.256C12.2677 12.256 11.584 11.794 11.3339 11.3071C10.9948 10.6466 10.9482 10.0561 10.9482 9.06805V4.70548H9.39799V9.96293L9.39811 9.96281ZM20.5812 21.876C20.5812 23.8537 22.0061 25.3996 23.9583 25.3996C25.3028 25.3996 26.4148 25.2877 27.289 24.1783C27.8602 23.4534 28.1105 22.4367 28.1105 21.1489V16.3947H26.505V21.7641C26.505 23.1414 25.6314 23.9453 24.2351 23.9453C22.8227 23.9453 22.1313 22.8784 22.1313 21.4284V16.3946H20.5812V21.8757V21.876ZM32.1126 6.61397C32.2173 6.74735 33.5736 9.85942 33.5913 10.0747H30.6571L32.1126 6.61397ZM27.5568 13.5983H29.1623L30.0662 11.4807L34.2002 11.473L35.0796 13.6011L36.7468 13.5984C36.5892 13.2975 36.3852 12.7861 36.2562 12.472C35.3545 10.2755 34.2652 7.91276 33.3292 5.69715C32.7772 4.39044 33.1397 4.64951 31.5427 4.64951C31.3521 4.64951 31.1041 5.3898 30.9742 5.69715C30.8079 6.0907 30.6583 6.44999 30.4895 6.8294L28.0471 12.4719C27.9181 12.7861 27.7142 13.2975 27.5566 13.5983H27.5568ZM1.64744 25.2878H3.08689C3.21444 25.2878 3.25294 25.2488 3.25294 25.1201V21.5405H7.34972V25.2878H8.95522V16.3948H7.51578C7.38822 16.3948 7.34972 16.4338 7.34972 16.5626V20.0862H3.25294V16.5626C3.25294 16.4337 3.21432 16.3948 3.08689 16.3948H1.64744V25.2878ZM41.0098 9.12389H39.2936C39.166 9.12389 39.1275 9.085 39.1275 8.95613V6.15959H41.342C42.5229 6.15959 43.1689 6.64799 43.1689 7.72562C43.1689 8.78618 42.1033 9.12389 41.0098 9.12389ZM37.5773 13.5983H39.1275V10.5222C41.523 10.5222 40.7816 10.1763 42.0934 12.0002C42.2698 12.2453 43.1228 13.4239 43.1689 13.5983H45.0513C44.7832 13.0865 42.9923 10.7506 42.726 10.2425C43.4195 9.90636 43.4377 10.0612 44.1531 9.33517C45.2352 8.23694 45.2314 4.70535 41.508 4.70535H37.5773V13.5983ZM12.1108 20.8693C12.1108 19.9137 12.4442 19.2823 12.8604 18.7182C13.1718 18.2961 14.0668 17.7372 14.7682 17.7372H15.2665C16.8274 17.7372 18.0346 19.2571 18.0346 20.8694C18.0346 22.4692 16.828 23.9457 15.2665 23.9457H14.9343C13.3558 23.9457 12.111 22.4708 12.111 20.8694L12.1108 20.8693ZM15.045 25.4556C17.672 25.4556 19.6158 23.4414 19.6706 20.8624C19.7613 16.5868 14.5273 14.8185 11.8195 17.5546C10.1022 19.2899 9.93767 22.2254 11.7926 24.0993C12.5339 24.8483 13.5959 25.4556 15.0451 25.4556H15.045ZM0.650879 29.8182H46.0477V28.6996H0.650879V29.8182H0.650879Z" fill="#256294"/>
</svg>
