<svg width="56" height="22" viewBox="0 0 56 22" fill="none" xmlns="http://www.w3.org/2000/svg">
<g clip-path="url(#clip0)">
<path opacity="0.95" d="M36.8626 15.2651C35.282 15.2651 34.0005 16.5817 34.0005 18.2058C34.0005 19.8302 35.282 21.1466 36.8626 21.1466C38.4429 21.1466 39.7244 19.8302 39.7244 18.2058C39.7244 16.5817 38.4429 15.2651 36.8626 15.2651Z" fill="#3AAA35"/>
<path d="M42.7761 15.265C41.1955 15.265 39.9141 16.5816 39.9141 18.2058C39.9141 19.8301 41.1955 21.1466 42.7761 21.1466C44.3567 21.1466 45.6382 19.8301 45.6382 18.2058C45.6382 16.5816 44.3567 15.265 42.7761 15.265Z" fill="#3AAA35"/>
<path opacity="0.55" d="M13.2071 15.2651C11.6268 15.2651 10.3455 16.5817 10.3455 18.2058C10.3455 19.8302 11.6268 21.1466 13.2071 21.1466C14.7877 21.1466 16.0691 19.8302 16.0691 18.2058C16.0691 16.5817 14.7877 15.2651 13.2071 15.2651Z" fill="#3AAA35"/>
<path opacity="0.65" d="M19.121 15.2651C17.5403 15.2651 16.259 16.5815 16.259 18.2056C16.259 19.83 17.5403 21.1466 19.121 21.1466C20.7016 21.1466 21.9832 19.83 21.9832 18.2056C21.9832 16.5815 20.7016 15.2651 19.121 15.2651Z" fill="#3AAA35"/>
<path opacity="0.85" d="M30.9487 15.2651C29.368 15.2651 28.0864 16.5817 28.0864 18.2057C28.0864 19.83 29.368 21.1466 30.9487 21.1466C32.5292 21.1466 33.8106 19.83 33.8106 18.2057C33.8106 16.5817 32.5292 15.2651 30.9487 15.2651Z" fill="#3AAA35"/>
<path opacity="0.75" d="M25.0265 15.2653C23.4456 15.2653 22.1643 16.5817 22.1643 18.2059C22.1643 19.8303 23.4456 21.1466 25.0265 21.1466C26.6067 21.1466 27.8882 19.8303 27.8882 18.2059C27.8882 16.5817 26.6067 15.2653 25.0265 15.2653Z" fill="#3AAA35"/>
<path d="M45.5628 9.69255L40.5913 9.68773L40.592 7.72965L43.251 7.73272C43.2511 7.73272 43.2513 7.73272 43.2514 7.73272C43.3098 7.73272 43.3659 7.70915 43.4073 7.66705C43.4487 7.62507 43.4721 7.56795 43.4721 7.50832L43.4732 5.39797C43.4734 5.27409 43.3746 5.17357 43.2529 5.17335L40.5953 5.17006L40.5962 3.52078L45.2693 3.52429C45.2694 3.52429 45.2694 3.52429 45.2695 3.52429C45.3913 3.52429 45.49 3.42399 45.4902 3.30011L45.493 1.1902C45.4931 1.13057 45.47 1.07345 45.4286 1.03136C45.3872 0.989153 45.3311 0.965474 45.2726 0.965365L37.8408 0.95813C37.8407 0.95813 37.8407 0.95813 37.8406 0.95813C37.7821 0.95813 37.7261 0.9817 37.6847 1.02379C37.6433 1.06578 37.6199 1.12289 37.6199 1.18242L37.6111 12.0217C37.611 12.1457 37.7097 12.2463 37.8316 12.2464L45.5609 12.2536C45.561 12.2536 45.561 12.2536 45.5612 12.2536C45.6197 12.2536 45.6757 12.23 45.7171 12.1879C45.7585 12.1458 45.7818 12.0888 45.7818 12.0292L45.7832 9.91717C45.7833 9.7933 45.6846 9.69267 45.5628 9.69255Z" fill="black"/>
<path d="M19.6896 0.958116L17.1881 0.956909H17.188C17.1295 0.956909 17.0733 0.980588 17.032 1.02257C16.9906 1.06467 16.9673 1.12178 16.9673 1.18131L16.9659 6.83675L14.5356 1.09383C14.5008 1.0115 14.4211 0.958116 14.3329 0.958116H11.1207C10.9988 0.958116 10.9 1.05864 10.9 1.18262L10.8994 12.0278C10.8994 12.1518 10.9981 12.2523 11.12 12.2523L13.6563 12.2532C13.6564 12.2532 13.6564 12.2532 13.6564 12.2532C13.7149 12.2532 13.7711 12.2295 13.8125 12.1874C13.8538 12.1454 13.8771 12.0882 13.8771 12.0287L13.8778 5.61753L16.6769 12.1173C16.712 12.1988 16.7913 12.2516 16.8789 12.2517L19.6893 12.2536H19.6894C19.7479 12.2536 19.804 12.2299 19.8454 12.1879C19.8868 12.1458 19.9101 12.0886 19.9101 12.029L19.9102 1.18262C19.9102 1.05864 19.8115 0.958225 19.6896 0.958116Z" fill="black"/>
<path d="M8.73317 0.957823L5.91482 0.956909C5.88684 0.956909 5.85945 0.968441 5.8397 0.988481C5.81966 1.00886 5.80864 1.03587 5.80864 1.06453V8.02769C5.80864 8.7913 5.19796 9.41252 4.44734 9.41252C3.69668 9.41252 3.08596 8.7913 3.08596 8.02769V2.31513L3.08589 2.31524L3.08582 1.90766L3.08596 1.06538C3.08596 1.00606 3.03841 0.957822 2.97997 0.957822L0.16162 0.956909C0.133235 0.956909 0.106535 0.968099 0.0864986 0.988481C0.0664622 1.00886 0.0554199 1.03587 0.0554199 1.06453V8.02769C0.0554199 10.4912 2.02562 12.4954 4.44734 12.4954C6.86901 12.4954 8.83917 10.4912 8.83917 8.02769V1.90749L8.83902 1.90766L8.83917 1.06538C8.83917 1.00607 8.79163 0.957823 8.73317 0.957823Z" fill="black"/>
<path d="M24.9534 1.18635C24.9535 1.06237 24.8548 0.961844 24.7329 0.961733L22.1931 0.956909C22.193 0.956909 22.193 0.956909 22.1929 0.956909C22.0711 0.956909 21.9723 1.05732 21.9722 1.1812L21.9707 12.0168C21.9707 12.0764 21.9939 12.1335 22.0353 12.1756C22.0766 12.2178 22.1327 12.2415 22.1913 12.2415L24.7315 12.2454H24.7316C24.7901 12.2454 24.8461 12.2219 24.8875 12.1798C24.929 12.1377 24.9523 12.0806 24.9523 12.021L24.9534 1.18635Z" fill="black"/>
<path d="M34.7586 6.13749C35.3333 5.59094 35.6946 4.81512 35.6946 3.95171C35.6946 2.29772 34.3765 0.956909 32.7506 0.956909C32.7289 0.956909 32.708 0.959735 32.6864 0.960209L31.3065 0.956909V0.959684L27.2399 0.958109H27.2397C27.1179 0.958109 27.0191 1.05853 27.019 1.18251L27.0139 12.0198C27.0139 12.0794 27.037 12.1365 27.0784 12.1787C27.1198 12.2208 27.176 12.2445 27.2346 12.2445L31.3065 12.2453V12.2454H32.034C32.0351 12.2454 32.0361 12.2454 32.0371 12.2454H32.6972C34.5516 12.2454 36.0549 10.7162 36.0549 8.82979C36.0549 7.73475 35.5464 6.76256 34.7586 6.13749ZM29.9301 3.21664H32.1531C32.5905 3.21664 32.9452 3.57734 32.9452 4.02228C32.9452 4.46725 32.5905 4.82795 32.1531 4.82795H29.9301V3.21664ZM32.121 9.55386C32.1194 9.55386 32.118 9.55363 32.1164 9.55363H29.9301V7.19796H32.121C32.7606 7.19796 33.279 7.72535 33.279 8.3759C33.279 9.02646 32.7606 9.55386 32.121 9.55386Z" fill="black"/>
<path d="M55.8641 1.03991C55.8227 0.997813 55.7666 0.974025 55.708 0.973916L47.3752 0.95813C47.3751 0.95813 47.375 0.95813 47.3749 0.95813C47.2532 0.95813 47.1544 1.05843 47.1542 1.1822L47.1506 3.27282C47.1504 3.39691 47.249 3.49754 47.3709 3.49776L49.9865 3.50324L49.9727 12.0219C49.9726 12.0815 49.9958 12.1386 50.0371 12.1808C50.0784 12.223 50.1346 12.2467 50.1931 12.2468L52.8287 12.2503C52.8288 12.2503 52.8289 12.2503 52.8291 12.2503C52.9508 12.2503 53.0495 12.15 53.0498 12.0261L53.0629 3.50763L55.7037 3.51289C55.7038 3.51289 55.7039 3.51289 55.704 3.51289C55.8257 3.51289 55.9245 3.41259 55.9247 3.28882L55.9284 1.19886C55.9285 1.13923 55.9053 1.08211 55.8641 1.03991Z" fill="black"/>
</g>
<defs>
<clipPath id="clip0">
<rect width="55.873" height="20.1923" fill="white" transform="translate(0.0634766 0.953125)"/>
</clipPath>
</defs>
</svg>
