<svg width="70" height="16" viewBox="0 0 70 16" fill="none" xmlns="http://www.w3.org/2000/svg">
<path fill-rule="evenodd" clip-rule="evenodd" d="M23.6192 13.3646C23.6196 13.363 23.6199 13.3615 23.6202 13.3599C23.6192 13.3614 23.618 13.3629 23.6169 13.3643L23.6192 13.3646Z" fill="#FFCB06"/>
<path fill-rule="evenodd" clip-rule="evenodd" d="M23.6192 13.3646L23.6169 13.3643C23.618 13.3629 23.6192 13.3614 23.6202 13.3599C23.6199 13.3615 23.6196 13.363 23.6192 13.3646Z" fill="#FFCB06"/>
<mask id="mask0" mask-type="alpha" maskUnits="userSpaceOnUse" x="65" y="6" width="5" height="10">
<path d="M65.7659 6.35547H69.9206V15.1756H65.7659V6.35547Z" fill="white"/>
</mask>
<g mask="url(#mask0)">
<path fill-rule="evenodd" clip-rule="evenodd" d="M65.7659 15.1756H69.919L69.9207 12.4349L68.2442 12.4373L68.2425 6.35547H65.7659V15.1756Z" fill="#030335"/>
</g>
<path fill-rule="evenodd" clip-rule="evenodd" d="M56.2071 6.34204L53.7276 6.34774L53.7333 9.45001L52.6219 9.45817V6.34742L49.9801 6.34774L49.98 15.1705L52.6345 15.1726L52.6322 11.664L53.74 11.6698L53.7402 15.1726L56.2071 15.1721V6.34204Z" fill="#030335"/>
<path fill-rule="evenodd" clip-rule="evenodd" d="M60.7427 15.1694H64.8573V12.4476L63.229 12.4443L63.2318 6.3504H60.7427V15.1694Z" fill="#030335"/>
<path fill-rule="evenodd" clip-rule="evenodd" d="M59.6602 6.3504H57.2223L57.2222 15.1683H59.6602V6.3504Z" fill="#030335"/>
<path fill-rule="evenodd" clip-rule="evenodd" d="M19.4515 2.51611C18.9354 2.51611 18.3989 2.97925 18.2533 3.55059C18.1077 4.12198 18.408 4.58506 18.924 4.58506C19.4402 4.58506 19.9764 4.12198 20.1222 3.55059C20.2678 2.97925 19.9676 2.51611 19.4515 2.51611Z" fill="#FFCB06"/>
<path fill-rule="evenodd" clip-rule="evenodd" d="M30.5856 2.51611C30.0695 2.51611 29.533 2.97925 29.3873 3.55059C29.2417 4.12198 29.542 4.58506 30.058 4.58506C30.5742 4.58506 31.1105 4.12198 31.2562 3.55059C31.4018 2.97925 31.1016 2.51611 30.5856 2.51611Z" fill="#FFCB06"/>
<mask id="mask1" mask-type="alpha" maskUnits="userSpaceOnUse" x="0" y="0" width="24" height="16">
<path d="M0.0793457 0.46875H23.0737V15.1301H0.0793457V0.46875Z" fill="white"/>
</mask>
<g mask="url(#mask1)">
<path fill-rule="evenodd" clip-rule="evenodd" d="M3.16359 14.4543C3.68189 14.211 4.14344 13.8779 4.6295 13.3046C4.763 13.1464 4.90099 12.968 5.03302 12.7846C5.16491 12.6013 5.29089 12.4137 5.48327 12.0978C5.53488 12.0132 5.59149 11.9189 5.65112 11.8181C5.75379 11.6366 5.87211 11.4302 6.00893 11.1948C7.17531 9.18807 7.84794 8.05716 8.21731 7.42535C8.58622 6.79438 9.0243 6.21218 9.5365 5.70372C9.77075 5.47113 10.0081 5.25793 10.248 5.05984C10.4559 4.88981 10.7159 4.76228 10.8682 4.71195C11.1773 4.61797 10.9926 4.87507 10.9112 5.02158C10.831 5.15073 10.7864 5.22934 10.6978 5.42932C10.65 5.53678 10.5889 5.69196 10.5255 5.8461C9.9984 7.12675 9.67959 9.06644 9.67959 9.06644C9.67959 9.06644 9.32843 11.251 8.02009 13.0775C7.85127 13.3131 7.67136 13.5393 7.53327 13.712C7.39513 13.8847 7.29513 14.0007 7.19084 14.1125C6.97319 14.3463 6.74782 14.5506 6.51765 14.7318C6.93162 14.8706 7.31168 14.7377 7.67353 14.5103C7.9989 14.3058 8.44006 13.8679 8.6619 13.5495C9.06245 12.9743 9.75708 11.9549 10.437 10.6846C10.8178 9.97318 12.0479 7.88766 12.0479 7.88766C13.8175 5.06643 14.628 3.99097 14.9333 3.57184C14.9334 3.57184 14.9334 3.57179 14.9334 3.57179C14.9334 3.57179 17.4043 -0.235209 21.4639 0.584343C22.0529 0.704192 22.6311 1.05532 23.0679 1.51063C23.0692 1.51204 23.0707 1.51334 23.072 1.51465C23.0759 1.51852 23.0716 1.52505 23.0664 1.52306C23.0664 1.52306 20.8407 0.468728 18.4025 1.7971C17.7142 2.17212 17.1722 2.82755 16.8135 3.32117C15.5146 5.08974 14.6793 6.70391 13.5092 8.56201C11.9774 10.9971 10.5276 13.1832 9.81359 13.9778C9.17228 14.6913 8.36594 14.9574 7.78417 15.0539H7.78432C7.78432 15.0539 6.93253 15.2183 6.19289 15.0087C6.00177 15.0836 5.73659 15.1301 5.44321 15.1301C4.86103 15.1301 4.38904 14.9474 4.38904 14.7219C4.38904 14.4964 4.86103 14.3137 5.44321 14.3137C5.72862 14.3137 5.98714 14.3578 6.17694 14.4292C6.45963 14.0845 6.65453 13.7522 6.82536 13.3865C6.96905 13.0802 7.13096 12.709 7.22969 12.4847C7.2806 12.3682 7.31148 12.2946 7.34125 12.2205C7.38539 12.1034 7.42863 11.9869 7.47197 11.8703H7.47237C7.47232 11.8702 7.47217 11.8702 7.47217 11.8702C7.47217 11.8702 8.47058 9.06854 8.634 7.8448C7.67232 9.05583 6.33915 11.3924 6.33915 11.3924C6.33915 11.3924 6.33849 11.3932 6.33834 11.3934C6.30449 11.455 6.26746 11.5212 6.22497 11.5953C6.09914 11.8147 5.92786 12.0998 5.74739 12.3782C5.56707 12.6565 5.37731 12.9278 5.24044 13.1175C5.10371 13.3071 5.01991 13.4149 4.93277 13.5198C4.74448 13.7459 4.54464 13.9504 4.32991 14.1331C3.94203 14.4559 3.55203 14.7006 3.11511 14.8245C2.78388 14.9178 2.43596 14.9339 2.09989 14.8846C1.93748 15.029 1.56605 15.1301 1.13327 15.1301C0.551089 15.1301 0.0791016 14.9474 0.0791016 14.7219C0.0791016 14.4964 0.551089 14.3137 1.13327 14.3137C1.31984 14.3137 1.49481 14.3326 1.64683 14.3656C1.75318 14.2198 2.20115 13.5868 2.4799 12.8868C2.79781 12.0881 4.05343 8.36209 4.21866 7.8737C5.05028 5.4163 6.33491 3.30528 7.77686 1.97262C6.3724 1.81153 4.55428 1.36355 3.2592 1.70762C0.41648 2.46304 1.839 5.23347 1.839 5.23347C1.839 5.23347 0.357703 4.88385 0.357703 3.29116C0.357703 1.47299 1.97104 0.75139 1.97104 0.75139C3.93603 -0.0502867 6.51049 1.11721 8.33532 1.49505C8.56987 1.26633 8.95634 1.05041 9.41753 0.913523C10.2462 0.667501 10.9603 0.784632 11.1043 1.14183C11.3068 1.64448 10.7269 2.0334 9.90733 2.22413C9.58509 2.29908 9.224 2.29579 8.96063 2.29223C7.16007 4.95975 5.721 8.52213 5.721 8.52213C5.46641 9.14469 5.02884 10.2115 4.75543 10.8603C4.48208 11.5087 4.3731 11.7387 4.24939 11.9826C4.0002 12.4803 3.68694 13.015 3.3648 13.4444C3.03539 13.918 2.65977 14.2336 2.31694 14.5791C2.31694 14.5791 2.69589 14.6738 3.16359 14.4543Z" fill="#FFCB06"/>
</g>
<path fill-rule="evenodd" clip-rule="evenodd" d="M31.0939 13.4614C30.7238 13.8816 29.9975 14.6103 29.3481 14.6103C28.1638 14.6103 29.9674 10.8629 32.0791 8.46557C33.1657 7.232 33.9736 6.91286 34.2238 6.91286C34.4742 6.91286 34.6068 7.06799 34.634 7.3898C34.7177 8.38173 31.8327 12.6227 31.0939 13.4614ZM48.7102 7.53385C48.5401 6.73698 47.54 5.9941 46.3137 6.53126C45.7348 6.78486 45.2298 7.32943 44.7962 7.90934C44.798 7.77344 44.7864 7.64215 44.7595 7.51613C44.5893 6.71926 43.5612 6.01945 42.3628 6.51349C41.928 6.69281 41.5398 7.04802 41.1908 7.45702L41.882 6.35052L40.0215 6.34952L37.3629 10.6392L37.2753 10.7806V10.7806C35.6986 13.3249 33.9741 14.2571 33.9741 14.2571C33.7127 14.3475 33.5576 14.3065 33.432 14.2198C32.983 13.9103 33.3373 13.33 33.3373 13.33L37.7243 6.35119H35.7849L35.4112 6.95284C35.271 6.44893 34.7919 6.28309 34.7919 6.28309C32.1308 5.2656 29.5728 9.1763 28.5689 10.9612V10.9611C28.2562 11.5052 27.1575 12.9202 27.1575 12.9202C26.5324 13.7811 26.0258 14.2223 25.768 14.4151C25.6587 14.4969 25.5355 14.5574 25.4034 14.5852C25.2939 14.6083 25.1659 14.6142 25.0622 14.5593C24.7592 14.3987 24.7156 13.995 25.0497 13.4639L29.5254 6.35119H27.6116L24.2219 11.8045L24.222 11.8052L24.2221 11.8061C24.1297 11.9556 24.0479 12.0998 23.9745 12.2401C23.7972 12.509 23.6204 12.7715 23.4818 12.975C22.9349 13.6694 22.3681 14.2519 22.151 14.4143C22.0418 14.4961 21.9185 14.5566 21.7864 14.5845C21.6769 14.6076 21.5488 14.6134 21.4451 14.5584C21.1421 14.3979 21.0985 13.9943 21.4326 13.4631L28.5689 2.51608L26.6554 2.51514L21.2879 10.755C20.9938 11.1688 20.1936 12.2927 19.8462 12.7804C19.2319 13.6178 18.6117 14.2249 18.3586 14.4143C18.2493 14.4961 18.126 14.5566 17.9939 14.5845C17.8844 14.6076 17.7563 14.6134 17.6527 14.5584C17.3497 14.3979 17.3061 13.9943 17.6402 13.4631L24.7765 2.51608L22.8629 2.51514L17.3273 11.0132L16.0635 12.9194C15.4385 13.7803 14.9318 14.2215 14.6741 14.4143C14.5648 14.4961 14.4415 14.5566 14.3095 14.5845C14.2 14.6076 14.0719 14.6134 13.9682 14.5584C13.6653 14.3979 13.6216 13.9943 13.9557 13.4631L18.4315 6.35119H16.5176L13.1279 11.8037L13.1281 11.8045L13.1282 11.8053C12.519 12.791 12.3207 13.5647 12.5707 14.2588C12.761 14.7871 13.2477 15.1112 13.8664 15.144C14.9774 15.2029 15.5202 14.3414 16.1279 13.658L16.1511 13.6313C16.1491 13.8492 16.1827 14.0575 16.2552 14.2588C16.4455 14.7871 16.9322 15.1112 17.5508 15.144C18.5371 15.1963 19.0755 14.5234 19.609 13.8936L19.948 13.5156C19.9306 13.776 19.9624 14.0222 20.0477 14.2588C20.238 14.7871 20.7246 15.1112 21.3433 15.144C22.4274 15.2015 22.9704 14.3828 23.5607 13.7081C23.5665 13.8986 23.6006 14.0818 23.6647 14.2596C23.8549 14.7879 24.3417 15.112 24.9604 15.1448C26.0714 15.2037 26.6141 14.3945 27.2218 13.711L27.7518 13.0361C27.726 13.1973 27.7068 13.3671 27.6968 13.5451C27.6801 13.8443 27.7265 14.1456 27.8449 14.4191C27.9804 14.7325 28.2313 15.0743 28.6927 15.1875C29.0914 15.2854 29.5104 15.2251 29.8848 15.0526C30.3233 14.8505 30.9876 14.4308 31.7272 13.5704C31.7086 13.8333 31.7403 14.0819 31.8263 14.3206C32.0166 14.8489 32.5025 15.2059 33.122 15.2059C33.9215 15.2059 34.6939 14.554 35.3695 13.856L34.5751 15.1379L36.5795 15.148L38.8309 11.5285C39.6468 10.2092 40.4618 8.9965 41.5576 7.91655L41.5578 7.91634C42.1469 7.31704 42.5754 7.27659 42.7764 7.29159C43.047 7.30518 43.3573 7.51284 43.2904 7.97812C43.2325 8.38063 43.0199 8.7003 42.4966 9.5048L42.4628 9.54076L38.8129 15.1478H40.7191L44.6506 9.07297C44.6507 9.07317 44.6508 9.07338 44.6509 9.07354L44.7538 8.91407C45.7308 7.37459 46.4546 7.26457 46.7338 7.28542C47.0044 7.29906 47.3081 7.53061 47.2411 7.99589C47.1782 8.43394 46.9322 8.77347 46.3015 9.74721L46.3 9.75113L44.9153 11.9154C44.6389 12.3499 44.4797 12.7162 44.3945 12.9483C44.3183 13.1559 44.2755 13.3759 44.2791 13.5979C44.2867 14.0562 44.4617 14.4371 44.7576 14.7405C45.1021 15.0937 45.5852 15.2745 46.0623 15.1855C46.1027 15.1781 46.1419 15.169 46.1798 15.1583C46.5361 15.0582 46.9586 14.8042 47.254 14.1619L47.2935 14.0757C47.3195 14.0187 47.3079 13.9475 47.261 13.9133C47.2069 13.8738 47.1339 13.8955 47.1011 13.9581C47.0659 14.0256 47.0129 14.1164 46.9427 14.2097C46.4984 14.7996 45.4874 14.682 45.7097 13.8564C45.7377 13.7522 45.7832 13.654 45.8382 13.5622L47.6985 10.4648L47.6988 10.4644C47.921 10.1122 48.0777 9.823 48.2369 9.53375C48.6585 8.76751 48.8313 8.10074 48.7102 7.53385Z" fill="#FFCB06"/>
</svg>
